<svg xmlns="http://www.w3.org/2000/svg" viewBox="0 0 84.35 76.62"><defs><clipPath id="clip-path"><path d="M48.5 7.2H75v26.5H48.5z" style="fill:none"/></clipPath><style>.cls-2{fill:#4886ff}.cls-7{fill:#fff}</style></defs><g id="Ebene_2" data-name="Ebene 2"><g id="Ebene_1-2" data-name="Ebene 1"><path d="m74.67 3.398 3.667-3.399 6.015 6.492-3.667 3.398z" class="cls-2"/><path d="M16.45 11.7h46.6a6 6 0 0 1 6 5.95v25.59a6 6 0 0 1-6 6H60v13.34L46.62 49.2H16.45a6 6 0 0 1-5.95-6V17.65a6 6 0 0 1 5.95-5.95Z" style="fill:#fff;stroke:#c6d2dc;stroke-miterlimit:10;stroke-width:5px"/><path d="M2.5 34.7v16.54a6 6 0 0 0 5.95 6h3.05v13.34L24.88 57.2H42" style="fill:none;stroke:#c6d2dc;stroke-miterlimit:10;stroke-width:5px"/><path d="M20.5 26.7H59m-38.5 7.25H59" style="fill:none;stroke:#c6d2dc;stroke-miterlimit:10;stroke-width:2.5px"/><circle cx="61.47" cy="20.36" r="19.31" class="cls-2"/><circle cx="61.47" cy="20.36" r="2.5" class="cls-2"/><g id="g10"><g id="g12" style="clip-path:url(#clip-path)"><g id="g14"><g id="g24"><path id="path26" d="M58 18.77a13.3 13.3 0 0 1 1.61-3 4.58 4.58 0 0 0-3.78-1.9h-2.18v2.95h2.21c1 0 1.56.66 2.17 2" class="cls-7"/></g><g id="g28"><path id="path30" d="M62.84 22.76a18.4 18.4 0 0 1-1.36 3 4.44 4.44 0 0 0 3.21 1.27h2.21v-2.9h-2.21c-.79 0-1.34-.46-1.85-1.37" class="cls-7"/></g><g id="g32"><path id="path34" d="M55.86 27.07h-2.21v-2.94h2.21c1.39 0 2-1.34 3-4.18s2.19-6.13 5.8-6.13h2.24v2.95h-2.21c-1.38 0-2 1.34-3 4.17s-2.18 6.13-5.8 6.13" class="cls-7"/></g><g id="g36"><path id="path38" d="m70.73 15.3-5.3-4.42v8.83Z" class="cls-7"/></g><g id="g40"><path id="path42" d="m70.73 25.6-5.3-4.41V30Z" class="cls-7"/></g></g></g></g></g></g></svg>