<svg xmlns="http://www.w3.org/2000/svg" viewBox="0 0 84.85 77.12"><defs><style>.cls-1{fill:#4886ff}</style></defs><g id="Ebene_2" data-name="Ebene 2"><g id="Ebene_1-2" data-name="Ebene 1"><path d="M75.176 3.398 78.844 0l6.015 6.491-3.667 3.398z" class="cls-1"/><path d="M16.45 12.2h46.6a6 6 0 0 1 6 5.95v25.59a6 6 0 0 1-6 6H60v13.34L46.62 49.7H16.45a6 6 0 0 1-5.95-6V18.15a6 6 0 0 1 5.95-5.95Z" style="fill:#fff;stroke:#c6d2dc;stroke-miterlimit:10;stroke-width:5px"/><path d="M2.5 35.2v16.54a6 6 0 0 0 5.95 6h3.05v13.34L24.88 57.7H42" style="stroke:#c6d2dc;stroke-miterlimit:10;stroke-width:5px;fill:none"/><path d="M20.5 27.2H59m-38.5 7.25H59" style="stroke:#c6d2dc;stroke-miterlimit:10;fill:none;stroke-width:2.5px"/><circle cx="61.47" cy="20.86" r="19.31" class="cls-1"/><path d="m61.5 21.2 12-10.5s-5-6-12-5.5z" style="fill:#ff4a4a"/><path d="M74.07 10.27S65.15 22.61 63.58 24a3.75 3.75 0 1 1-4.9-5.68c1.57-1.39 15.39-8.05 15.39-8.05" style="fill:#fff"/><circle cx="61.47" cy="20.86" r="2.5" class="cls-1"/></g></g></svg>