<svg xmlns="http://www.w3.org/2000/svg" viewBox="0 0 70.2 61.06"><g data-name="Ebene 2"><g data-name="Ebene 1"><path d="M63.05 0H7.15A7.15 7.15 0 0 0 0 7.15v30.7A7.15 7.15 0 0 0 7.15 45h3.65v16.06L26.86 45h36.19a7.15 7.15 0 0 0 7.15-7.15V7.15A7.15 7.15 0 0 0 63.05 0" style="fill:#c6d2dc"/><path d="m18.55 27.34 4-4.58 1.1-1.07h-5.08v-2.37h8.89v2.11l-4 4.53-1.1 1.11h5.27v2.41h-9.1Zm21.91-.53v2.63H29v-2.51l7.48-8.22h-7.33v-2.63h11.07v2.51l-7.43 8.22Zm1.36.53 4-4.58 1.09-1.07h-5.07v-2.37h8.89v2.11l-4 4.53-1.09 1.11h5.26v2.41h-9.08Z" style="fill:#fff"/></g></g></svg>