<svg xmlns="http://www.w3.org/2000/svg" viewBox="0 0 75.82 71.05"><g data-name="Ebene 2"><g data-name="Ebene 1"><path d="M2.5 26.26v17.87a6.43 6.43 0 0 0 6.43 6.43h3.29V65l14.45-14.44h18.49" style="fill:none;stroke-miterlimit:10;stroke-width:5px;stroke:#c6d2dc"/><path d="M16.57 2.5h50.32a6.43 6.43 0 0 1 6.43 6.43v27.64A6.43 6.43 0 0 1 66.89 43H63.6v14.45L49.15 43H16.57a6.43 6.43 0 0 1-6.43-6.43V8.93a6.43 6.43 0 0 1 6.43-6.43Z" style="fill:none;stroke-miterlimit:10;stroke-width:5px;stroke:#4886ff"/><circle cx="25.8" cy="22.48" r="5.94" style="fill:#4886ff"/><circle cx="40.92" cy="22.48" r="5.94" style="fill:#4886ff;opacity:.7"/><circle cx="56.04" cy="22.48" r="5.94" style="fill:#4886ff;opacity:.3"/></g></g></svg>