<?xml version="1.0" encoding="UTF-8" standalone="no"?>
<!-- Generator: Adobe Illustrator 14.0.0, SVG Export Plug-In . SVG Version: 6.00 Build 43363)  -->

<svg
   xmlns:dc="http://purl.org/dc/elements/1.1/"
   xmlns:cc="http://creativecommons.org/ns#"
   xmlns:rdf="http://www.w3.org/1999/02/22-rdf-syntax-ns#"
   xmlns:svg="http://www.w3.org/2000/svg"
   xmlns="http://www.w3.org/2000/svg"
   xmlns:sodipodi="http://sodipodi.sourceforge.net/DTD/sodipodi-0.dtd"
   xmlns:inkscape="http://www.inkscape.org/namespaces/inkscape"
   version="1.0"
   id="Layer_1"
   x="0px"
   y="0px"
   width="100px"
   height="100px"
   viewBox="0 0 100 100"
   enable-background="new 0 0 100 100"
   xml:space="preserve"
   inkscape:version="0.48+devel r10511 custom"
   sodipodi:docname="escalated.svg"
   inkscape:export-filename="/Users/sw/Downloads/noun_project_554_1.png"
   inkscape:export-xdpi="31.5"
   inkscape:export-ydpi="31.5"><metadata
   id="metadata9"><rdf:RDF><cc:Work
       rdf:about=""><dc:format>image/svg+xml</dc:format><dc:type
         rdf:resource="http://purl.org/dc/dcmitype/StillImage" /><dc:title></dc:title></cc:Work></rdf:RDF></metadata><defs
   id="defs7" /><sodipodi:namedview
   pagecolor="#ffffff"
   bordercolor="#666666"
   borderopacity="1"
   objecttolerance="10"
   gridtolerance="10"
   guidetolerance="10"
   inkscape:pageopacity="0"
   inkscape:pageshadow="2"
   inkscape:window-width="914"
   inkscape:window-height="674"
   id="namedview5"
   showgrid="false"
   inkscape:zoom="4.7719298"
   inkscape:cx="72.341244"
   inkscape:cy="49.627748"
   inkscape:window-x="181"
   inkscape:window-y="86"
   inkscape:window-maximized="0"
   inkscape:current-layer="Layer_1" />
<path
   d="M 66.3387,34.725725 C 59.091866,27.551984 49.455006,23.599928 39.202602,23.599928 l -0.04682,0 c -10.241659,0 -19.868542,3.952056 -27.111538,11.128077 C 4.802016,41.904026 0.81710196,51.441401 0.82400896,61.576144 0.81710896,71.732167 4.804318,81.280181 12.051919,88.465323 19.297217,95.646664 28.93024,99.601 39.177272,99.601 l 0.0023,0 c 10.257777,0 19.901545,-3.953576 27.152216,-11.134917 C 73.580928,81.287022 77.574284,71.739007 77.575052,61.579944 77.574284,51.435321 73.584765,41.899466 66.3387,34.725725 z M 39.202602,32.074048 c 16.440073,0 29.816244,13.236346 29.816244,29.505136 0,6.43805 -2.092233,12.400335 -5.637364,17.260603 L 21.782418,37.610726 c 5.029496,-3.595611 11.049847,-5.537438 17.374133,-5.537438 l 0.04605,0 z M 18.106043,82.475678 C 12.474819,76.89492 9.377147,69.475695 9.383287,61.576144 c -0.0061,-6.465411 2.082256,-12.618458 5.943601,-17.69837 l 41.722633,41.349903 c -4.98498,3.702772 -11.173416,5.899963 -17.869945,5.899963 -7.961385,0 -15.444612,-3.072723 -21.073533,-8.651962 z"
   id="path3"
   inkscape:connector-curvature="0"
   style="stroke:#000000;stroke-opacity:1;fill:none" />
<g
   id="g1007"
   style="fill:#000000;fill-opacity:1"
   transform="matrix(1.2636068,0,0,1.2636068,-11.026655,-12.741058)"><rect
     transform="matrix(0.70372682,-0.71047066,0.71047066,0.70372682,0,0)"
     y="64.839409"
     x="-4.92383"
     height="9.0387592"
     width="54.168018"
     id="rect233"
     style="fill:#000000;fill-opacity:1;stroke:none" /><rect
     style="fill:#000000;fill-opacity:1;stroke:none"
     id="rect1003"
     width="26.421362"
     height="8.5314569"
     x="61.340969"
     y="10.59376"
     transform="matrix(0.99998863,-0.00476862,0.00476862,0.99998863,0,0)" /><rect
     transform="matrix(-0.00476862,-0.99998863,0.99998863,-0.00476862,0,0)"
     y="79.268036"
     x="-37.087418"
     height="8.5314569"
     width="26.421362"
     id="rect1005"
     style="fill:#000000;fill-opacity:1;stroke:none" /></g></svg>