<?xml version="1.0" encoding="UTF-8" standalone="no"?>
<!-- Generator: Adobe Illustrator 14.0.0, SVG Export Plug-In . SVG Version: 6.00 Build 43363)  -->

<svg
   xmlns:dc="http://purl.org/dc/elements/1.1/"
   xmlns:cc="http://creativecommons.org/ns#"
   xmlns:rdf="http://www.w3.org/1999/02/22-rdf-syntax-ns#"
   xmlns:svg="http://www.w3.org/2000/svg"
   xmlns="http://www.w3.org/2000/svg"
   xmlns:sodipodi="http://sodipodi.sourceforge.net/DTD/sodipodi-0.dtd"
   xmlns:inkscape="http://www.inkscape.org/namespaces/inkscape"
   version="1.0"
   id="Layer_1"
   x="0px"
   y="0px"
   width="77.125"
   height="77.125"
   viewBox="0 0 77.124999 77.125"
   enable-background="new 0 0 86.04 100"
   xml:space="preserve"
   inkscape:version="0.48+devel r10069"
   sodipodi:docname="payment_refused.svg"
   inkscape:export-filename="/Users/sw/Downloads/noun_project_148.png"
   inkscape:export-xdpi="40.84"
   inkscape:export-ydpi="40.84"><metadata
   id="metadata9"><rdf:RDF><cc:Work
       rdf:about=""><dc:format>image/svg+xml</dc:format><dc:type
         rdf:resource="http://purl.org/dc/dcmitype/StillImage" /><dc:title></dc:title></cc:Work></rdf:RDF></metadata><defs
   id="defs7" /><sodipodi:namedview
   pagecolor="#ffffff"
   bordercolor="#666666"
   borderopacity="1"
   objecttolerance="10"
   gridtolerance="10"
   guidetolerance="10"
   inkscape:pageopacity="0"
   inkscape:pageshadow="2"
   inkscape:window-width="1080"
   inkscape:window-height="652"
   id="namedview5"
   showgrid="false"
   fit-margin-top="0"
   fit-margin-left="0"
   fit-margin-right="0"
   fit-margin-bottom="0"
   inkscape:zoom="4.8221568"
   inkscape:cx="35.236808"
   inkscape:cy="39.245114"
   inkscape:window-x="113"
   inkscape:window-y="337"
   inkscape:window-maximized="0"
   inkscape:current-layer="Layer_1" />
<path
   d="m 13.490683,44.714127 1.356551,-4.588483 6.332907,0 c -0.04299,-0.884208 -0.06448,-1.787909 -0.06448,-2.715103 0,-0.796237 0.02149,-1.593973 0.06448,-2.39021 l -7.689458,0 1.356551,-4.588983 6.849736,0 c 0.733258,-3.941198 2.100806,-7.35507 4.103644,-10.242115 3.360889,-4.867892 8.002355,-7.301087 13.926398,-7.301087 5.039834,0 8.95504,1.582477 11.745118,4.74843 2.789578,3.167453 4.335067,6.764765 4.636468,10.792933 l -5.26676,0 c -0.581807,-3.058989 -1.766416,-5.482188 -3.554325,-7.269597 -1.787409,-1.788409 -4.285584,-2.682114 -7.496023,-2.682114 -3.941697,0 -7.118647,1.648455 -9.53085,4.943866 -1.336058,1.809402 -2.294741,4.14613 -2.876049,7.010683 l 18.029541,0 -1.357551,4.588984 -17.318777,0 c -0.06448,1.098137 -0.09697,2.260753 -0.09697,3.489347 0,0.559815 0.011,1.097637 0.03249,1.615466 l 18.740306,0 -1.357551,4.588483 -16.898415,0 c 0.517829,2.821568 1.433026,5.26626 2.747092,7.334076 2.175781,3.447361 5.428206,5.170292 9.757275,5.170292 3.985183,0 7.022679,-1.820399 9.111489,-5.460696 1.098137,-1.917866 1.917366,-4.438533 2.455688,-7.560501 l 5.267259,0 c -0.473343,4.996849 -2.035827,9.186964 -4.685451,12.568346 -3.166454,4.071655 -7.431544,6.105482 -12.794771,6.105482 -4.63147,0 -8.518685,-1.667948 -11.664645,-5.007845 -2.972518,-3.14396 -4.878388,-7.529011 -5.71911,-13.150153 l -8.141809,0 z"
   id="path3"
   inkscape:connector-curvature="0" />
<path
   sodipodi:type="arc"
   style="fill:none;stroke:#000000;stroke-width:8;stroke-miterlimit:4;stroke-opacity:1;stroke-dasharray:none"
   id="path11"
   sodipodi:cx="11.523414"
   sodipodi:cy="12.71627"
   sodipodi:rx="34.57024"
   sodipodi:ry="34.57024"
   d="m 46.093654,12.71627 a 34.57024,34.57024 0 1 1 -69.14048,0 34.57024,34.57024 0 1 1 69.14048,0 z"
   transform="translate(27.03125,25.84375)" /><rect
   style="fill:#000000;fill-opacity:1;stroke:#00000f;stroke-width:6;stroke-linejoin:miter;stroke-miterlimit:4;stroke-opacity:0.94117647;stroke-dasharray:none;stroke-dashoffset:0"
   id="rect27"
   width="60.968567"
   height="2.695889"
   x="-27.758131"
   y="51.94125"
   transform="matrix(0.70710678,-0.70710678,0.70710678,0.70710678,0,0)" /></svg>