<?xml version="1.0" encoding="UTF-8" standalone="no"?>
<!-- Generator: Adobe Illustrator 14.0.0, SVG Export Plug-In . SVG Version: 6.00 Build 43363)  -->

<svg
   xmlns:dc="http://purl.org/dc/elements/1.1/"
   xmlns:cc="http://creativecommons.org/ns#"
   xmlns:rdf="http://www.w3.org/1999/02/22-rdf-syntax-ns#"
   xmlns:svg="http://www.w3.org/2000/svg"
   xmlns="http://www.w3.org/2000/svg"
   xmlns:sodipodi="http://sodipodi.sourceforge.net/DTD/sodipodi-0.dtd"
   xmlns:inkscape="http://www.inkscape.org/namespaces/inkscape"
   version="1.0"
   id="Layer_1"
   x="0px"
   y="0px"
   width="100px"
   height="100px"
   viewBox="0 0 100 100"
   enable-background="new 0 0 100 100"
   xml:space="preserve"
   inkscape:version="0.48+devel r10069"
   sodipodi:docname="noun_project_554_1.svg"
   inkscape:export-filename="/Users/sw/Downloads/noun_project_554_1.png"
   inkscape:export-xdpi="31.5"
   inkscape:export-ydpi="31.5"><metadata
   id="metadata9"><rdf:RDF><cc:Work
       rdf:about=""><dc:format>image/svg+xml</dc:format><dc:type
         rdf:resource="http://purl.org/dc/dcmitype/StillImage" /></cc:Work></rdf:RDF></metadata><defs
   id="defs7" /><sodipodi:namedview
   pagecolor="#ffffff"
   bordercolor="#666666"
   borderopacity="1"
   objecttolerance="10"
   gridtolerance="10"
   guidetolerance="10"
   inkscape:pageopacity="0"
   inkscape:pageshadow="2"
   inkscape:window-width="640"
   inkscape:window-height="480"
   id="namedview5"
   showgrid="false"
   inkscape:zoom="2.62"
   inkscape:cx="50"
   inkscape:cy="50"
   inkscape:window-x="0"
   inkscape:window-y="302"
   inkscape:window-maximized="0"
   inkscape:current-layer="Layer_1" />
<path
   d="M85.36,14.639C75.918,5.2,63.362,0,50.004,0h-0.061C36.599,0,24.056,5.2,14.619,14.642C5.183,24.084-0.009,36.633,0,49.968  c-0.009,13.363,5.186,25.926,14.629,35.38C24.069,94.797,36.62,100,49.971,100h0.003c13.365,0,25.93-5.202,35.377-14.651  C94.796,75.903,99.999,63.34,100,49.973C99.999,36.625,94.801,24.078,85.36,14.639z M50.004,11.15  c21.42,0,38.848,17.416,38.848,38.822c0,8.471-2.726,16.316-7.345,22.711l-54.2-54.248c6.553-4.731,14.397-7.286,22.637-7.286  H50.004z M22.517,77.467c-7.337-7.343-11.373-17.105-11.365-27.499c-0.008-8.507,2.713-16.603,7.744-23.287l54.361,54.407  c-6.495,4.872-14.558,7.763-23.283,7.763C39.601,88.851,29.851,84.808,22.517,77.467z"
   id="path3" />
</svg>