<?xml version="1.0" encoding="UTF-8" standalone="no"?>
<!-- Created with Inkscape (http://www.inkscape.org/) -->

<svg
   xmlns:dc="http://purl.org/dc/elements/1.1/"
   xmlns:cc="http://creativecommons.org/ns#"
   xmlns:rdf="http://www.w3.org/1999/02/22-rdf-syntax-ns#"
   xmlns:svg="http://www.w3.org/2000/svg"
   xmlns="http://www.w3.org/2000/svg"
   xmlns:sodipodi="http://sodipodi.sourceforge.net/DTD/sodipodi-0.dtd"
   xmlns:inkscape="http://www.inkscape.org/namespaces/inkscape"
   width="321.34"
   height="321.34"
   id="svg2"
   version="1.1"
   inkscape:version="0.48+devel r10511 custom"
   sodipodi:docname="user_withdrew.svg"
   inkscape:export-filename="/Users/sw/Sites/froide/media/img/status/source/user_withdrew.png"
   inkscape:export-xdpi="12.570005"
   inkscape:export-ydpi="12.570005">
  <defs
     id="defs4" />
  <sodipodi:namedview
     id="base"
     pagecolor="#ffffff"
     bordercolor="#666666"
     borderopacity="1.0"
     inkscape:pageopacity="0.0"
     inkscape:pageshadow="2"
     inkscape:zoom="0.93303299"
     inkscape:cx="215.05773"
     inkscape:cy="123.79366"
     inkscape:document-units="px"
     inkscape:current-layer="layer1"
     showgrid="false"
     fit-margin-top="0"
     fit-margin-left="0"
     fit-margin-right="0"
     fit-margin-bottom="0"
     inkscape:window-width="1102"
     inkscape:window-height="698"
     inkscape:window-x="0"
     inkscape:window-y="302"
     inkscape:window-maximized="0" />
  <metadata
     id="metadata7">
    <rdf:RDF>
      <cc:Work
         rdf:about="">
        <dc:format>image/svg+xml</dc:format>
        <dc:type
           rdf:resource="http://purl.org/dc/dcmitype/StillImage" />
        <dc:title />
      </cc:Work>
    </rdf:RDF>
  </metadata>
  <g
     inkscape:label="Layer 1"
     inkscape:groupmode="layer"
     id="layer1"
     transform="translate(-159.94227,-159.27298)">
    <path
       style="fill:#000000"
       d="m 433.431,362.15331 c -21.81501,-21.80807 -40.04209,-39.41716 -40.50462,-39.1313 -0.46254,0.28586 -0.84097,7.29 -0.84097,15.56476 l 0,15.04501 -45.43227,-0.27749 -45.43225,-0.27751 -6.49712,-3.19958 c -12.77108,-6.28929 -22.8513,-19.63348 -24.9543,-33.03455 -2.87785,-18.33856 1.18052,-32.22636 12.84021,-43.93937 6.684,-6.71458 12.62364,-10.04568 20.51281,-11.50406 3.72515,-0.68863 32.06353,-1.02535 86.2944,-1.02535 l 80.7478,0 0.51393,-2.11757 c 0.28265,-1.16468 0.39661,-23.29338 0.25322,-49.1749 l -0.26072,-47.05732 -87.52661,0 -87.5266,0 -9.88203,2.17683 c -19.5991,4.31729 -39.4982,12.57905 -51.76305,21.49111 -24.68124,17.93424 -39.24657,35.81132 -51.84504,63.63323 -6.78701,14.98814 -9.82228,27.99543 -11.2531,48.2239 -2.55917,36.18048 5.16734,65.95868 24.71428,95.24955 9.74798,14.60725 28.65308,33.38553 41.70049,41.4208 6.26365,3.85746 15.29329,8.33916 23.27969,11.55444 16.28429,6.55595 16.728,6.59378 77.36067,6.59378 l 54.15559,0 0,14.06165 c 0,7.7339 0.34018,14.27189 0.75598,14.52887 0.41577,0.25696 4.12154,-2.57678 8.23502,-6.2972 8.09373,-7.32036 71.30279,-70.83167 71.74763,-72.09073 0.14885,-0.42127 -17.57801,-18.60894 -39.39304,-40.417 z"
       id="path3188"
       inkscape:connector-curvature="0" />
  </g>
</svg>
