<?xml version="1.0" encoding="UTF-8" standalone="no"?>
<!-- Generator: Adobe Illustrator 14.0.0, SVG Export Plug-In . SVG Version: 6.00 Build 43363)  -->

<svg
   xmlns:dc="http://purl.org/dc/elements/1.1/"
   xmlns:cc="http://creativecommons.org/ns#"
   xmlns:rdf="http://www.w3.org/1999/02/22-rdf-syntax-ns#"
   xmlns:svg="http://www.w3.org/2000/svg"
   xmlns="http://www.w3.org/2000/svg"
   xmlns:sodipodi="http://sodipodi.sourceforge.net/DTD/sodipodi-0.dtd"
   xmlns:inkscape="http://www.inkscape.org/namespaces/inkscape"
   version="1.0"
   id="Layer_1"
   x="0px"
   y="0px"
   width="91.248px"
   height="100px"
   viewBox="0 0 91.248 100"
   enable-background="new 0 0 91.248 100"
   xml:space="preserve"
   inkscape:version="0.48+devel r10069"
   sodipodi:docname="noun_project_291.svg"
   inkscape:export-filename="/Users/sw/Downloads/noun_project_291.png"
   inkscape:export-xdpi="34.52"
   inkscape:export-ydpi="34.52"><metadata
   id="metadata17"><rdf:RDF><cc:Work
       rdf:about=""><dc:format>image/svg+xml</dc:format><dc:type
         rdf:resource="http://purl.org/dc/dcmitype/StillImage" /></cc:Work></rdf:RDF></metadata><defs
   id="defs15" /><sodipodi:namedview
   pagecolor="#ffffff"
   bordercolor="#666666"
   borderopacity="1"
   objecttolerance="10"
   gridtolerance="10"
   guidetolerance="10"
   inkscape:pageopacity="0"
   inkscape:pageshadow="2"
   inkscape:window-width="640"
   inkscape:window-height="480"
   id="namedview13"
   showgrid="false"
   inkscape:zoom="2.62"
   inkscape:cx="45.624001"
   inkscape:cy="50"
   inkscape:window-x="149"
   inkscape:window-y="360"
   inkscape:window-maximized="0"
   inkscape:current-layer="Layer_1" />
<path
   d="M45.624,100C20.466,100,0,79.533,0,54.376C0,29.22,20.466,8.752,45.624,8.752S91.248,29.22,91.248,54.376  C91.248,79.533,70.782,100,45.624,100L45.624,100z M45.624,14.396c-22.045,0-39.979,17.935-39.979,39.979  c0,22.047,17.934,39.979,39.979,39.979c22.046,0,39.979-17.933,39.979-39.979C85.604,32.331,67.67,14.396,45.624,14.396  L45.624,14.396z"
   id="path3" />
<path
   d="M48.446,54.376c0-11.132,0-22.262,0-33.395c0-3.64-5.645-3.64-5.645,0c0,11.132,0,22.262,0,33.395  C42.802,58.016,48.446,58.016,48.446,54.376L48.446,54.376z"
   id="path5" />
<path
   d="M45.624,51.554c-11.132,0-22.262,0-33.395,0c-3.64,0-3.64,5.645,0,5.645c11.133,0,22.263,0,33.395,0  C49.264,57.198,49.264,51.554,45.624,51.554L45.624,51.554z"
   id="path7" />
<path
   d="M5.275,17.498l1.9,5.653C15.042,14.584,25.64,8.58,37.589,6.495l-4.474-5.071l-0.002,0.001  c-2.148-2.67-9.547-1.499-16.954,2.776C8.751,8.479,4.039,14.299,5.278,17.497L5.275,17.498z"
   id="path9" />
<path
   d="M85.974,17.498l-1.9,5.653C76.206,14.584,65.608,8.58,53.658,6.495l4.474-5.071l0.003,0.001  c2.149-2.67,9.548-1.499,16.955,2.776c7.407,4.278,12.12,10.098,10.88,13.295L85.974,17.498z"
   id="path11" />
</svg>