<?xml version="1.0" encoding="UTF-8" standalone="no"?>
<!-- Created with Inkscape (http://www.inkscape.org/) -->

<svg
   xmlns:dc="http://purl.org/dc/elements/1.1/"
   xmlns:cc="http://creativecommons.org/ns#"
   xmlns:rdf="http://www.w3.org/1999/02/22-rdf-syntax-ns#"
   xmlns:svg="http://www.w3.org/2000/svg"
   xmlns="http://www.w3.org/2000/svg"
   xmlns:sodipodi="http://sodipodi.sourceforge.net/DTD/sodipodi-0.dtd"
   xmlns:inkscape="http://www.inkscape.org/namespaces/inkscape"
   width="321.33679"
   height="338.8956"
   id="svg2"
   version="1.1"
   inkscape:version="0.48+devel r10511 custom"
   sodipodi:docname="user_withdrawn.svg"
   inkscape:export-filename="/Users/sw/Sites/froide/media/img/status/user_withdrew_costs.png"
   inkscape:export-xdpi="10.271424"
   inkscape:export-ydpi="10.271424">
  <defs
     id="defs4" />
  <sodipodi:namedview
     id="base"
     pagecolor="#ffffff"
     bordercolor="#666666"
     borderopacity="1.0"
     inkscape:pageopacity="0.0"
     inkscape:pageshadow="2"
     inkscape:zoom="0.68359375"
     inkscape:cx="215.05773"
     inkscape:cy="123.79366"
     inkscape:document-units="px"
     inkscape:current-layer="layer1"
     showgrid="false"
     fit-margin-top="0"
     fit-margin-left="0"
     fit-margin-right="0"
     fit-margin-bottom="0"
     inkscape:window-width="1102"
     inkscape:window-height="698"
     inkscape:window-x="0"
     inkscape:window-y="302"
     inkscape:window-maximized="0" />
  <metadata
     id="metadata7">
    <rdf:RDF>
      <cc:Work
         rdf:about="">
        <dc:format>image/svg+xml</dc:format>
        <dc:type
           rdf:resource="http://purl.org/dc/dcmitype/StillImage" />
        <dc:title></dc:title>
      </cc:Work>
    </rdf:RDF>
  </metadata>
  <g
     inkscape:label="Layer 1"
     inkscape:groupmode="layer"
     id="layer1"
     transform="translate(-159.94227,-141.71739)">
    <path
       style="fill:#000000"
       d="m 443.07964,337.90546 c -14.3832,-14.37862 -26.40079,-25.98874 -26.70574,-25.80027 -0.30497,0.18848 -0.55448,4.80649 -0.55448,10.26225 l 0,9.91956 -29.95466,-0.18296 -29.95466,-0.18297 -4.28371,-2.10956 c -8.4203,-4.14669 -15.06645,-12.94486 -16.45302,-21.78053 -1.89743,-12.09109 0.77835,-21.24767 8.46589,-28.97036 4.40693,-4.42709 8.32309,-6.62337 13.52462,-7.58492 2.45609,-0.45403 21.14031,-0.67604 56.89612,-0.67604 l 53.2391,0 0.33885,-1.39617 c 0.18636,-0.7679 0.2615,-15.35792 0.16695,-32.42228 l -0.1719,-31.0261 -57.70854,0 -57.70854,0 -6.51548,1.43524 c -12.92219,2.8465 -26.04218,8.29369 -34.12871,14.16964 -16.27298,11.82451 -25.87627,23.61133 -34.18277,41.95503 -4.47485,9.88207 -6.47608,18.45811 -7.41946,31.79526 -1.68732,23.85472 3.40696,43.48825 16.29476,62.80048 6.4271,9.63093 18.89172,22.01194 27.49421,27.3098 4.12979,2.54332 10.08326,5.49822 15.3489,7.61814 10.73665,4.32251 11.0292,4.34744 51.00588,4.34744 l 35.70617,0 0,9.27121 c 0,5.09917 0.22429,9.40983 0.49844,9.57926 0.27413,0.16943 2.71744,-1.69894 5.42956,-4.15191 5.33641,-4.82649 47.01177,-46.70114 47.30506,-47.53126 0.0981,-0.27776 -11.58964,-12.26936 -25.97284,-26.64798 z"
       id="path3188"
       inkscape:connector-curvature="0" />
    <flowRoot
       xml:space="preserve"
       id="flowRoot3209"
       style="font-size:40px;font-style:normal;font-weight:normal;line-height:125%;letter-spacing:0px;word-spacing:0px;fill:#000000;fill-opacity:1;stroke:none;font-family:Bitstream Vera Sans"
       transform="translate(503.7137,169.51167)"><flowRegion
         id="flowRegion3211"><rect
           id="rect3213"
           width="234.05714"
           height="162.37714"
           x="-337.92001"
           y="43.398457" /></flowRegion><flowPara
         id="flowPara3215"
         style="font-size:144px;font-weight:bold;-inkscape-font-specification:Bitstream Vera Sans Bold">€</flowPara></flowRoot>  </g>
</svg>
