<svg xmlns="http://www.w3.org/2000/svg" viewBox="0 0 70.2 61.06"><defs><style>.cls-1{fill:#c6d2dc;}.cls-2{fill:#fff;}</style></defs><title>icon-anfrage eingeschlafen</title><g id="Ebene_2" data-name="Ebene 2"><g id="Ebene_1-2" data-name="Ebene 1"><path class="cls-1" d="M63.05,0H7.15A7.15,7.15,0,0,0,0,7.15v30.7A7.15,7.15,0,0,0,7.15,45H10.8V61.06L26.86,45H63.05a7.15,7.15,0,0,0,7.15-7.15V7.15A7.15,7.15,0,0,0,63.05,0Z"/><path class="cls-2" d="M18.55,27.34l4-4.58,1.1-1.07-1.62,0H18.57V19.32h8.89v2.11l-4,4.53-1.1,1.11,1.78,0h3.49v2.41h-9.1Z"/><path class="cls-2" d="M40.46,26.81v2.63H29V26.93l7.48-8.22H29.15V16.08H40.22v2.51l-7.43,8.22Z"/><path class="cls-2" d="M41.82,27.34l4-4.58,1.09-1.07-1.62,0H41.84V19.32h8.89v2.11l-4,4.53-1.09,1.11,1.78,0h3.48v2.41H41.82Z"/></g></g></svg>