<?xml version="1.0" encoding="utf-8"?>
<!-- Generator: Adobe Illustrator 21.0.0, SVG Export Plug-In . SVG Version: 6.00 Build 0)  -->
<svg version="1.1" id="Layer_1" xmlns="http://www.w3.org/2000/svg" xmlns:xlink="http://www.w3.org/1999/xlink" x="0px" y="0px"
	 viewBox="0 0 76.2 71.3" style="enable-background:new 0 0 76.2 71.3;" xml:space="preserve">
<style type="text/css">
	.st0{fill:none;stroke:#4886FF;stroke-width:6;stroke-miterlimit:10;}
	.st1{fill:#FF4A4A;}
</style>
<title>icon-anfrage-zuruckgezogen</title>
<g id="Ebene_2">
	<g id="Ebene_1-2">
		<path class="st0" d="M66.1,3H10.1C6.2,3,3,6.2,3,10.1v30.7c0,3.9,3.2,7.2,7.1,7.2h0h3.7v16.1L29.9,48h36.2c3.9,0,7.2-3.2,7.2-7.1
			c0,0,0,0,0,0V10.1C73.2,6.2,70,3,66.1,3L66.1,3z"/>
		<polygon class="st1" points="36.3,15.9 32.1,11.7 18.6,25.2 31.5,38.1 35.7,33.9 30,28.2 42.9,28.2 42.9,21.6 30.6,21.6 		"/>
		<rect x="48" y="21.6" class="st1" width="5.7" height="6.6"/>
	</g>
</g>
</svg>
