<svg xmlns="http://www.w3.org/2000/svg" xmlns:xlink="http://www.w3.org/1999/xlink" viewBox="0 0 84.35 76.62"><defs><style>.cls-1,.cls-4,.cls-5{fill:none;}.cls-2{fill:#4886ff;}.cls-3,.cls-7{fill:#fff;}.cls-3,.cls-4,.cls-5{stroke:#c6d2dc;stroke-miterlimit:10;}.cls-3,.cls-4{stroke-width:5px;}.cls-5{stroke-width:2.5px;}.cls-6{clip-path:url(#clip-path);}</style><clipPath id="clip-path"><rect class="cls-1" x="48.5" y="7.2" width="26.5" height="26.5"/></clipPath></defs><title>icon-warteaufvermittlung</title><g id="Ebene_2" data-name="Ebene 2"><g id="Ebene_1-2" data-name="Ebene 1"><rect class="cls-2" x="77.01" y="0.52" width="5" height="8.85" transform="translate(17.83 55.36) rotate(-42.82)"/><path class="cls-3" d="M16.45,11.7h46.6a6,6,0,0,1,6,5.95V43.24a6,6,0,0,1-6,6H60V62.58L46.62,49.2H16.45a6,6,0,0,1-5.95-6V17.65A6,6,0,0,1,16.45,11.7Z"/><path class="cls-4" d="M2.5,34.7V51.24a6,6,0,0,0,5.95,6H11.5V70.58L24.88,57.2H42"/><line class="cls-5" x1="20.5" y1="26.7" x2="59" y2="26.7"/><line class="cls-5" x1="20.5" y1="33.95" x2="59" y2="33.95"/><circle class="cls-2" cx="61.47" cy="20.36" r="19.31"/><circle class="cls-2" cx="61.47" cy="20.36" r="2.5"/><g id="g10"><g id="g12"><g class="cls-6"><g id="g14"><g id="g24"><path id="path26" class="cls-7" d="M58,18.77a13.34,13.34,0,0,1,1.61-3,4.58,4.58,0,0,0-3.78-1.9H53.65v2.95h2.21c1,0,1.56.66,2.17,2"/></g><g id="g28"><path id="path30" class="cls-7" d="M62.84,22.76a18.35,18.35,0,0,1-1.36,3,4.44,4.44,0,0,0,3.21,1.27H66.9V24.13H64.69c-.79,0-1.34-.46-1.85-1.37"/></g><g id="g32"><path id="path34" class="cls-7" d="M55.86,27.07H53.65V24.13h2.21c1.39,0,2-1.34,3-4.18s2.19-6.13,5.8-6.13H66.9v2.95H64.69c-1.38,0-2,1.34-3,4.17s-2.18,6.13-5.8,6.13"/></g><g id="g36"><path id="path38" class="cls-7" d="M70.73,15.3l-5.3-4.42v8.83Z"/></g><g id="g40"><path id="path42" class="cls-7" d="M70.73,25.6l-5.3-4.41V30Z"/></g></g></g></g></g></g></g></svg>