<svg xmlns="http://www.w3.org/2000/svg" viewBox="0 0 75.82 71.05"><defs><style>.cls-1,.cls-2{fill:none;stroke-miterlimit:10;stroke-width:5px;}.cls-1{stroke:#c6d2dc;}.cls-2{stroke:#4886ff;}.cls-3,.cls-4,.cls-5{fill:#4886ff;}.cls-4{opacity:0.7;}.cls-5{opacity:0.3;}</style></defs><title>icon-warte-auf-antwort</title><g id="Ebene_2" data-name="Ebene 2"><g id="Ebene_1-2" data-name="Ebene 1"><path class="cls-1" d="M2.5,26.26V44.13a6.43,6.43,0,0,0,6.43,6.43h3.29V65L26.67,50.56H45.16"/><path class="cls-2" d="M16.57,2.5H66.89a6.43,6.43,0,0,1,6.43,6.43V36.57A6.43,6.43,0,0,1,66.89,43H63.6V57.45L49.15,43H16.57a6.43,6.43,0,0,1-6.43-6.43V8.93A6.43,6.43,0,0,1,16.57,2.5Z"/><circle class="cls-3" cx="25.8" cy="22.48" r="5.94"/><circle class="cls-4" cx="40.92" cy="22.48" r="5.94"/><circle class="cls-5" cx="56.04" cy="22.48" r="5.94"/></g></g></svg>