<?xml version="1.0" encoding="utf-8"?>
<!-- Generator: Adobe Illustrator 22.1.0, SVG Export Plug-In . SVG Version: 6.00 Build 0)  -->
<svg version="1.1" id="Layer_1" xmlns="http://www.w3.org/2000/svg" xmlns:xlink="http://www.w3.org/1999/xlink" x="0px" y="0px"
	 viewBox="0 0 274 274" style="enable-background:new 0 0 274 274;" xml:space="preserve">
<style type="text/css">
	.st0{fill:#4886FF;}
	.st1{enable-background:new    ;}
	.st2{fill:#FFFFFF;}
</style>
<title>Group 15</title>
<desc>Created with Sketch.</desc>
<circle id="Oval-3" class="st0" cx="137" cy="137" r="137"/>
<g class="st1">
	<path class="st2" d="M230.7,107.3l-88.9,88.9l-16.7,16.7c-2.2,2.2-5.3,3.4-8.3,3.4s-6.1-1.2-8.3-3.4l-16.7-16.7l-44.4-44.4
		c-2.2-2.2-3.4-5.3-3.4-8.3s1.2-6.1,3.4-8.3L64,118.3c2.2-2.2,5.3-3.4,8.3-3.4c3.1,0,6.1,1.2,8.3,3.4l36.1,36.2l80.5-80.7
		c2.2-2.2,5.3-3.4,8.3-3.4c3.1,0,6.1,1.2,8.3,3.4l16.7,16.7c2.2,2.2,3.4,5.3,3.4,8.3S232.9,105,230.7,107.3z"/>
</g>
</svg>
