<?xml version="1.0" encoding="utf-8"?>
<!-- Generator: Adobe Illustrator 14.0.0, SVG Export Plug-In . SVG Version: 6.00 Build 43363)  -->
<!DOCTYPE svg PUBLIC "-//W3C//DTD SVG 1.0//EN" "http://www.w3.org/TR/2001/REC-SVG-20010904/DTD/svg10.dtd">
<svg version="1.0" id="Layer_1" xmlns="http://www.w3.org/2000/svg" xmlns:xlink="http://www.w3.org/1999/xlink" x="0px" y="0px"
	 width="100px" height="93.182px" viewBox="0 0 100 93.182" enable-background="new 0 0 100 93.182" xml:space="preserve">
<g>
	<path d="M51.95,26.513l-0.003,3.258C55.024,29.332,54.717,26.583,51.95,26.513z"/>
	<path d="M48.76,22.592V19.72C46.481,20.118,46.525,22.557,48.76,22.592z"/>
	<path d="M50.343,12.161c-7.053,0-12.772,5.718-12.772,12.771c0,7.054,5.719,12.772,12.772,12.772
		c7.054,0,12.772-5.718,12.772-12.772C63.115,17.879,57.396,12.161,50.343,12.161z M51.914,33.01v2.28h-3.17v-2.313
		c-1.816-0.266-5.138-2.017-5.344-5.78h3.335c0.211,0.962,0.489,2.126,2.008,2.558l-0.004-3.781
		c-2.081-0.299-5.082-1.211-5.082-4.558c0-3.761,4.162-4.934,5.086-4.934v-2.274h3.137v2.274c2.115,0.123,5.186,1.891,5.186,5.252
		h-3.303c-0.084-0.998-0.857-1.979-1.85-2.048v3.466c2.521,0.258,5.482,1.221,5.482,4.609C57.396,30.719,54.424,32.877,51.914,33.01
		z"/>
</g>
<path d="M62.745,67.638c-7.054,0-12.772,5.719-12.772,12.772c0,7.053,5.718,12.771,12.772,12.771s12.771-5.719,12.771-12.771
	C75.517,73.356,69.799,67.638,62.745,67.638z M68.471,82.371v3.118h-3.979v4.377h-3.388v-4.377h-4.247v-3.064h4.301l-5.592-9.848
	h3.71l3.441,6.073l3.733-6.073h3.417l-5.537,9.794H68.471z"/>
<path d="M22.47,53.165c-7.054,0-12.772,5.719-12.772,12.772S15.416,78.71,22.47,78.71s12.772-5.719,12.772-12.772
	S29.523,53.165,22.47,53.165z M22.875,63.502v3.037h-2.293v7.286h-3.253v-7.259h-1.936v-3.038h1.936v-2.715
	c0-1.049,1.021-4.248,4.866-4.248c3.925,0,4.762,3.09,4.762,5.673H23.76c0-1.657-0.225-2.527-1.538-2.527
	c-1.407,0-1.64,0.968-1.64,2.5v1.291H22.875z M30.204,66.513c-2.629,0.322-3.226,1.725-3.226,3.464v3.849h-3.226V63.502h3.226v1.613
	c0.699-0.808,1.505-1.668,3.226-1.668V66.513z"/>
<path d="M0,0v49.564h58.721c1.109,5.925,6.305,10.409,12.551,10.409s11.441-4.484,12.55-10.409H100V0H0z M69.967,45.132h2.903v2.753
	h-2.366c0.296,2.516-1.155,3.574-1.236,4.422h7.903v2.753H65.343v-2.753c1.344-0.9,2.043-3.178,1.612-4.396h-2.473v-2.806h1.989
	c-0.538-1.271-0.538-1.694-0.538-2.806c0-1.112,0.915-4.737,5.699-4.712c4.406,0.023,5.686,3.653,5.686,6.248l-3.354,0.002
	c-0.225-1.571-0.842-2.861-2.3-2.861c-2.231,0-2.235,1.403-2.235,1.879S69.509,44.496,69.967,45.132z M90.576,40.141h-8.663
	c-2.288-3.441-6.199-5.71-10.642-5.71s-8.354,2.269-10.643,5.71H9.423V9.424h81.153V40.141z"/>
</svg>
