<?xml version="1.0" encoding="utf-8"?>
<!-- Generator: Adobe Illustrator 14.0.0, SVG Export Plug-In . SVG Version: 6.00 Build 43363)  -->
<!DOCTYPE svg PUBLIC "-//W3C//DTD SVG 1.0//EN" "http://www.w3.org/TR/2001/REC-SVG-20010904/DTD/svg10.dtd">
<svg version="1.0" id="Layer_1" xmlns="http://www.w3.org/2000/svg" xmlns:xlink="http://www.w3.org/1999/xlink" x="0px" y="0px"
	 width="93.124px" height="100px" viewBox="0 0 93.124 100" enable-background="new 0 0 93.124 100" xml:space="preserve">
<path d="M11.623,42.23c0,16.961,18.245,30.711,40.751,30.711c22.507,0,40.75-13.75,40.75-30.711H11.623z"/>
<path d="M31.164,100c-7.395,0-13.411-6.017-13.411-13.41c0-7.395,6.016-13.409,13.411-13.409c7.394,0,13.409,6.015,13.409,13.409
	C44.573,93.983,38.558,100,31.164,100L31.164,100z M31.164,78.316c-4.563,0-8.275,3.711-8.275,8.273
	c0,4.562,3.712,8.274,8.275,8.274c4.562,0,8.273-3.713,8.273-8.274C39.438,82.027,35.726,78.316,31.164,78.316L31.164,78.316z"/>
<path d="M73.05,100c-7.396,0-13.411-6.017-13.411-13.41c0-7.395,6.016-13.409,13.411-13.409c7.393,0,13.407,6.015,13.407,13.409
	C86.457,93.983,80.442,100,73.05,100L73.05,100z M73.05,78.316c-4.563,0-8.275,3.711-8.275,8.273c0,4.562,3.712,8.274,8.275,8.274
	c4.561,0,8.272-3.713,8.272-8.274C81.322,82.027,77.61,78.316,73.05,78.316L73.05,78.316z"/>
<g>
	<path d="M11.623,38.787h5.131c0-0.006,0.001-0.011,0.001-0.018c-0.186-8.503-4.561-18.695-14.277-19.122
		c-3.312-0.146-3.298,4.991,0,5.136c6.664,0.292,9.022,8.544,9.142,13.986C11.621,38.775,11.622,38.781,11.623,38.787z"/>
	<path d="M14.223,41.25c0.013,0,0.027,0,0.041,0H14.223z"/>
</g>
<path d="M67.047,3.927L67.047,3.927c0.068-0.248,0.139-0.496,0.207-0.745c0.891-3.197-4.064-4.551-4.952-1.366
	c-0.062,0.222-0.123,0.444-0.186,0.666c-3.305,11.875-6.609,23.748-9.913,35.622c-0.066,0.24-0.092,0.466-0.097,0.683h41.018
	C93.124,22.926,82.31,9.379,67.047,3.927z"/>
</svg>
