<?xml version="1.0" encoding="utf-8"?>
<!-- Generator: Adobe Illustrator 14.0.0, SVG Export Plug-In . SVG Version: 6.00 Build 43363)  -->
<!DOCTYPE svg PUBLIC "-//W3C//DTD SVG 1.0//EN" "http://www.w3.org/TR/2001/REC-SVG-20010904/DTD/svg10.dtd">
<svg version="1.0" id="Layer_1" xmlns="http://www.w3.org/2000/svg" xmlns:xlink="http://www.w3.org/1999/xlink" x="0px" y="0px"
	 width="100px" height="50.738px" viewBox="0 0 100 50.738" enable-background="new 0 0 100 50.738" xml:space="preserve">
<path id="path5534" d="M71.231,17.737H49.385l-6.706-3.605V3.966L85.651,0v13.267L71.23,16.079L71.231,17.737L71.231,17.737z"/>
<path id="path5536" d="M1.509,31.766L100,31.941l-0.017-18.314l-28.248,6.202H30.637L1.509,27.615
	C-0.208,28.311-0.777,31.766,1.509,31.766z"/>
<path id="path1874" d="M29.531,40.031c0,3.498-2.832,6.336-6.33,6.346c-3.498,0.009-6.342-2.815-6.361-6.312
	c-0.017-3.498,2.8-6.351,6.297-6.376c3.498-0.026,6.357,2.782,6.394,6.28"/>
<path id="path1876" d="M43.812,40.031c0,3.498-2.831,6.336-6.329,6.346c-3.497,0.009-6.343-2.815-6.359-6.312
	c-0.017-3.498,2.798-6.351,6.296-6.376c3.498-0.026,6.357,2.782,6.392,6.28"/>
<path id="path1880" d="M57.843,40.031c0,3.498-2.832,6.336-6.33,6.346c-3.498,0.009-6.342-2.815-6.36-6.312
	c-0.018-3.498,2.8-6.351,6.298-6.376c3.496-0.026,6.356,2.782,6.393,6.28"/>
<path id="path3511" d="M72.206,40.031c0,3.498-2.831,6.336-6.329,6.346c-3.498,0.009-6.342-2.815-6.36-6.312
	c-0.018-3.498,2.8-6.351,6.297-6.376c3.497-0.026,6.357,2.782,6.392,6.28"/>
<path id="path1890" d="M7.238,33.772L4.28,33.907c-1.647,4.099-0.275,7.849,4.255,10.624c5.103,3.128,11.235,6.141,13.011,6.188
	l60.343,0.019c1.776-0.047,7.909-3.06,13.013-6.188c4.529-2.776,5.901-6.535,4.254-10.634l-2.958-0.126
	c0.891,3.835,1.658,6.423-3.887,9.049c-4.537,2.149-9.335,4.709-10.083,4.863l-61.021-0.01c-0.748-0.154-5.535-2.723-10.073-4.872
	C5.59,40.195,6.349,37.606,7.238,33.772z M0.029,5.918v4.203l41.206,1.4V5.853L0.029,5.918z"/>
<path id="path1884" d="M86.459,40.363c0,3.498-2.831,6.336-6.328,6.345c-3.499,0.01-6.344-2.814-6.361-6.312
	c-0.017-3.498,2.8-6.351,6.298-6.377c3.497-0.027,6.357,2.782,6.392,6.28"/>
<path id="path1886" d="M95.255,37.415c0,1.995-1.613,3.612-3.607,3.616c-1.994,0.006-3.616-1.604-3.625-3.599
	c-0.011-1.993,1.595-3.618,3.589-3.633c1.993-0.016,3.624,1.586,3.644,3.579"/>
<path id="path1888" d="M15.362,37.415c0,1.995-1.615,3.612-3.608,3.616c-1.994,0.006-3.616-1.604-3.626-3.599
	c-0.01-1.993,1.596-3.618,3.589-3.633c1.995-0.016,3.624,1.586,3.644,3.579"/>
</svg>
