<?xml version="1.0" encoding="UTF-8" standalone="no"?>
<!-- Generator: Adobe Illustrator 14.0.0, SVG Export Plug-In . SVG Version: 6.00 Build 43363)  -->

<svg
   xmlns:dc="http://purl.org/dc/elements/1.1/"
   xmlns:cc="http://creativecommons.org/ns#"
   xmlns:rdf="http://www.w3.org/1999/02/22-rdf-syntax-ns#"
   xmlns:svg="http://www.w3.org/2000/svg"
   xmlns="http://www.w3.org/2000/svg"
   xmlns:sodipodi="http://sodipodi.sourceforge.net/DTD/sodipodi-0.dtd"
   xmlns:inkscape="http://www.inkscape.org/namespaces/inkscape"
   version="1.0"
   id="Layer_1"
   x="0px"
   y="0px"
   width="91.969px"
   height="100px"
   viewBox="0 0 91.969 100"
   enable-background="new 0 0 91.969 100"
   xml:space="preserve"
   inkscape:version="0.48+devel r10069"
   sodipodi:docname="noun_project_69.svg"
   inkscape:export-filename="/Users/sw/Sites/froide/media/img/topics/entwicklung.png"
   inkscape:export-xdpi="34.250671"
   inkscape:export-ydpi="34.250671"><metadata
   id="metadata17"><rdf:RDF><cc:Work
       rdf:about=""><dc:format>image/svg+xml</dc:format><dc:type
         rdf:resource="http://purl.org/dc/dcmitype/StillImage" /></cc:Work></rdf:RDF></metadata><defs
   id="defs15" /><sodipodi:namedview
   pagecolor="#ffffff"
   bordercolor="#666666"
   borderopacity="1"
   objecttolerance="10"
   gridtolerance="10"
   guidetolerance="10"
   inkscape:pageopacity="0"
   inkscape:pageshadow="2"
   inkscape:window-width="640"
   inkscape:window-height="480"
   id="namedview13"
   showgrid="false"
   inkscape:zoom="2.62"
   inkscape:cx="45.984501"
   inkscape:cy="50"
   inkscape:window-x="329"
   inkscape:window-y="63"
   inkscape:window-maximized="0"
   inkscape:current-layer="Layer_1" />
<path
   d="M1.783,9.116c1.183-1.268,2.5-1.901,3.95-1.901c1.438,0,2.798,0.634,4.073,1.901c1.274,1.268,1.916,3.171,1.916,5.706  v21.682c-1.521,0.167-2.958,0.804-4.31,1.901c-1.353,1.1-2.029,2.36-2.029,3.797c0,1.1,0.296,2.064,0.886,2.91l7.256,12.023v-1.262  L6.805,44.775c-0.592-0.754-0.888-1.551-0.888-2.395c0-0.754,0.212-1.445,0.633-2.079c0.423-0.634,0.973-1.198,1.648-1.706  c0.677-0.506,1.417-0.9,2.219-1.196c0.804-0.296,1.544-0.444,2.22-0.444c1.345,0,2.485,0.607,3.416,1.803L33.108,62.09  c1.177,1.689,2.035,3.719,2.585,6.083c0.55,2.368,0.823,4.525,0.823,6.469V100H15.328V76.922c0-1.184-0.275-2.28-0.816-3.297  c-0.55-1.014-0.945-1.688-1.191-2.029c-3.016-4.311-5.425-7.772-7.227-10.394c-1.804-2.623-3.142-4.757-4.022-6.403  c-0.88-1.647-1.445-3.001-1.699-4.059C0.12,49.682,0,48.565,0,47.381V14.822C0,12.287,0.592,10.384,1.783,9.116L1.783,9.116z"
   id="path3" />
<polygon
   points="26.599,36.053 26.599,12.724 45.989,24.262 45.984,47.127 26.599,36.053 "
   id="polygon5" />
<polygon
   points="65.889,36.053 46.503,47.127 46.499,24.262 65.889,12.724 65.889,36.053 "
   id="polygon7" />
<polygon
   points="46.273,0 65.603,11.666 46.273,23.332 26.817,11.666 46.273,0 "
   id="polygon9" />
<path
   d="M91.969,47.381c0,1.184-0.126,2.301-0.372,3.359c-0.247,1.058-0.817,2.411-1.72,4.059c-0.901,1.646-2.219,3.78-3.938,6.403  c-1.72,2.621-4.058,6.083-7.002,10.394c-0.331,0.341-0.719,1.016-1.17,2.029c-0.449,1.017-0.676,2.113-0.676,3.297V100H55.903  V74.642c0-1.943,0.268-4.101,0.816-6.469c0.55-2.364,1.409-4.394,2.593-6.083l16.807-23.332c0.932-1.196,2.106-1.803,3.544-1.803  s2.895,0.57,4.374,1.704s2.22,2.5,2.22,4.101c0,0.843-0.212,1.514-0.634,2.015l-6.848,11.099v1.262l7.248-12.023  c0.254-0.424,0.423-0.824,0.508-1.206c0.084-0.379,0.126-0.782,0.126-1.203c0-1.601-0.634-2.986-1.901-4.17s-2.62-1.862-4.058-2.029  V14.822c0-2.535,0.585-4.438,1.755-5.706c1.169-1.268,2.458-1.901,3.88-1.901c1.417,0,2.713,0.634,3.883,1.901  c1.169,1.268,1.753,3.171,1.753,5.706V47.381L91.969,47.381z"
   id="path11" />
</svg>