<?xml version="1.0" encoding="utf-8"?>
<!-- Generator: Adobe Illustrator 14.0.0, SVG Export Plug-In . SVG Version: 6.00 Build 43363)  -->
<!DOCTYPE svg PUBLIC "-//W3C//DTD SVG 1.0//EN" "http://www.w3.org/TR/2001/REC-SVG-20010904/DTD/svg10.dtd">
<svg version="1.0" id="Layer_1" xmlns="http://www.w3.org/2000/svg" xmlns:xlink="http://www.w3.org/1999/xlink" x="0px" y="0px"
	 width="98.867px" height="100px" viewBox="0 0 98.867 100" enable-background="new 0 0 98.867 100" xml:space="preserve">
<rect x="34.052" y="69.898" transform="matrix(0.866 0.5001 -0.5001 0.866 42.667 -14.4992)" width="28.666" height="4.917"/>
<path d="M84.899,89.814C92.07,83.042,96.61,73.53,96.61,62.913c0-13.081-6.868-24.88-17.553-31.508l11.97-20.719l-1.88-1.083
	l2.952-5.134L84.359,0L81.4,5.127L79.42,3.983L49.995,54.957l2.57,1.484l-3.649,6.311l6.466,3.736l3.649-6.317l2.565,1.483
	L73.97,40.226c7.587,4.836,12.458,13.312,12.458,22.688c0,14.832-12.078,26.901-26.912,26.901H37.834V100h61.033V89.814H84.899z"/>
<path d="M30.722,11.488V3.405h0.995l-0.015-1.94h-9.069l0.015,1.94h1.068v8.083h-6.767V3.405h0.992l-0.011-1.94h-9.08l0.018,1.94
	h1.069v8.083H0v40.506h40.569V11.488H30.722z M37.136,48.565H3.433V14.919h6.503V15v25.797c0,1.959,1.601,3.549,3.532,3.549
	c1.938-0.007,3.48-1.594,3.48-3.549V15v-0.081h6.767V15v25.797c0,1.959,1.601,3.549,3.532,3.549
	c1.937-0.007,3.478-1.594,3.474-3.549V15v-0.081h6.415V48.565z"/>
</svg>
