<?xml version="1.0" encoding="UTF-8" standalone="no"?>
<!-- Generator: Adobe Illustrator 14.0.0, SVG Export Plug-In . SVG Version: 6.00 Build 43363)  -->

<svg
   xmlns:dc="http://purl.org/dc/elements/1.1/"
   xmlns:cc="http://creativecommons.org/ns#"
   xmlns:rdf="http://www.w3.org/1999/02/22-rdf-syntax-ns#"
   xmlns:svg="http://www.w3.org/2000/svg"
   xmlns="http://www.w3.org/2000/svg"
   xmlns:sodipodi="http://sodipodi.sourceforge.net/DTD/sodipodi-0.dtd"
   xmlns:inkscape="http://www.inkscape.org/namespaces/inkscape"
   version="1.0"
   id="Layer_1"
   x="0px"
   y="0px"
   width="93.882px"
   height="100px"
   viewBox="0 0 93.882 100"
   enable-background="new 0 0 93.882 100"
   xml:space="preserve"
   inkscape:version="0.48+devel r10069"
   sodipodi:docname="noun_project_31_1.svg"
   inkscape:export-filename="/Users/sw/Sites/froide/media/img/topics/inneres.png"
   inkscape:export-xdpi="33.552757"
   inkscape:export-ydpi="33.552757"><metadata
   id="metadata17"><rdf:RDF><cc:Work
       rdf:about=""><dc:format>image/svg+xml</dc:format><dc:type
         rdf:resource="http://purl.org/dc/dcmitype/StillImage" /></cc:Work></rdf:RDF></metadata><defs
   id="defs15" /><sodipodi:namedview
   pagecolor="#ffffff"
   bordercolor="#666666"
   borderopacity="1"
   objecttolerance="10"
   gridtolerance="10"
   guidetolerance="10"
   inkscape:pageopacity="0"
   inkscape:pageshadow="2"
   inkscape:window-width="640"
   inkscape:window-height="480"
   id="namedview13"
   showgrid="false"
   inkscape:zoom="2.62"
   inkscape:cx="46.941002"
   inkscape:cy="50"
   inkscape:window-x="0"
   inkscape:window-y="302"
   inkscape:window-maximized="0"
   inkscape:current-layer="Layer_1" />
<path
   d="M74.843,12.472H53.791h-2.399l-6.234,6.122h6.234v1.361c0,7.138,5.788,12.925,12.926,12.925s12.926-5.787,12.926-12.925  v-7.483H74.843z"
   id="path3" />
<polygon
   points="77.243,8.39 50.826,8.39 45.157,0 77.243,0 "
   id="polygon5" />
<path
   d="M87.079,37.415h-0.227h-1.019L53.321,78.687h26.5v7.256H46.517V100h33.304h14.061V85.942v-7.137V52.736v-8.185  C93.882,40.609,90.836,37.415,87.079,37.415z"
   id="path7" />
<path
   d="m -29.007634,3.8533206 0,9.1850004 0,7.895 0,9.183 1.023,0.779 c 4.742,3.613 9.482,7.223 14.226,10.835 0.226,0.188 0.448,0.376 0.701,0.533 0.044,0.034 0.087,0.067 0.131,0.099 l 0,-9.183 0,-2.285 5.6090004,0 0,-27.0410004 -21.6900004,0 z m 20.3290004,25.6810004 -4.2480004,0 0,-4.25 0,-9.184 c -4.767,-3.63 -9.53,-7.2570004 -14.295,-10.8860004 l 18.5430004,0 0,24.3200004 z"
   id="path9"
   inkscape:connector-curvature="0" />
<path
   d="M75.688,37.271H44.962h-2.81l-0.001,0.019c-1.548,0.005-3.059,0.536-4.042,1.776c-3.844,4.86-7.689,9.722-11.532,14.583  c-5.674-4.32-11.348-8.64-17.019-12.961c-2.664-2.027-6.847-0.419-8.378,2.197c-1.841,3.145-0.453,6.359,2.197,8.376  c6.768,5.154,13.537,10.31,20.305,15.466c0.202,0.166,0.4,0.336,0.627,0.476c0.082,0.063,0.163,0.124,0.244,0.187  c1.182,0.9,2.666,1.082,4.085,0.777c1.29-0.148,2.502-0.683,3.334-1.734c0.054-0.07,0.108-0.14,0.163-0.208  c0.26-0.271,0.488-0.561,0.683-0.863c4.049-5.118,8.095-10.235,12.143-15.355v26.269L75.688,37.271z"
   id="path11" />
</svg>