<?xml version="1.0" encoding="UTF-8" standalone="no"?>
<!-- Created with Inkscape (http://www.inkscape.org/) -->

<svg
   xmlns:dc="http://purl.org/dc/elements/1.1/"
   xmlns:cc="http://creativecommons.org/ns#"
   xmlns:rdf="http://www.w3.org/1999/02/22-rdf-syntax-ns#"
   xmlns:svg="http://www.w3.org/2000/svg"
   xmlns="http://www.w3.org/2000/svg"
   xmlns:sodipodi="http://sodipodi.sourceforge.net/DTD/sodipodi-0.dtd"
   xmlns:inkscape="http://www.inkscape.org/namespaces/inkscape"
   width="144.37549"
   height="177.25967"
   id="svg5859"
   version="1.1"
   inkscape:version="0.48+devel r10069"
   sodipodi:docname="usine.svg"
   inkscape:export-filename="/Users/sw/Sites/froide/media/img/topics/wirtschaft.png"
   inkscape:export-xdpi="22.4"
   inkscape:export-ydpi="22.4">
  <title
     id="title3866">usine</title>
  <defs
     id="defs5861" />
  <sodipodi:namedview
     id="base"
     pagecolor="#ffffff"
     bordercolor="#666666"
     borderopacity="1.0"
     inkscape:pageopacity="0.0"
     inkscape:pageshadow="2"
     inkscape:zoom="1"
     inkscape:cx="14.571684"
     inkscape:cy="-1.7603154"
     inkscape:document-units="px"
     inkscape:current-layer="layer1"
     showgrid="false"
     inkscape:window-width="1442"
     inkscape:window-height="812"
     inkscape:window-x="1414"
     inkscape:window-y="122"
     inkscape:window-maximized="0"
     fit-margin-top="0"
     fit-margin-left="0"
     fit-margin-right="0"
     fit-margin-bottom="0"
     showborder="false"
     inkscape:showpageshadow="false" />
  <metadata
     id="metadata5864">
    <rdf:RDF>
      <cc:Work
         rdf:about="">
        <dc:format>image/svg+xml</dc:format>
        <dc:type
           rdf:resource="http://purl.org/dc/dcmitype/StillImage" />
        <dc:title>usine</dc:title>
        <dc:date>2011-05-14</dc:date>
        <dc:creator>
          <cc:Agent>
            <dc:title>lmproulx</dc:title>
          </cc:Agent>
        </dc:creator>
        <cc:license
           rdf:resource="http://creativecommons.org/licenses/publicdomain/" />
      </cc:Work>
      <cc:License
         rdf:about="http://creativecommons.org/licenses/publicdomain/">
        <cc:permits
           rdf:resource="http://creativecommons.org/ns#Reproduction" />
        <cc:permits
           rdf:resource="http://creativecommons.org/ns#Distribution" />
        <cc:permits
           rdf:resource="http://creativecommons.org/ns#DerivativeWorks" />
      </cc:License>
    </rdf:RDF>
  </metadata>
  <g
     inkscape:label="Calque 1"
     inkscape:groupmode="layer"
     id="layer1"
     transform="translate(-323.28076,-341.17832)">
    <path
       style="fill:#000000;fill-opacity:1;stroke:#000000;stroke-width:4.88007927;stroke-linecap:round;stroke-linejoin:miter;stroke-miterlimit:4;stroke-opacity:1;stroke-dasharray:none;stroke-dashoffset:0"
       d="m 387.54949,482.24958 72.44144,-10e-6 -10e-6,-32.87697 -31.16666,8.9158 -0.84235,-10.03027 -40.43242,11.14474 z"
       id="path3841"
       inkscape:connector-curvature="0"
       sodipodi:nodetypes="ccccccc"
       inkscape:export-filename="/Users/sw/Sites/froide/media/img/topics/wirtschaft.png"
       inkscape:export-xdpi="22.222221"
       inkscape:export-ydpi="22.222221" />
    <path
       style="fill:#000000;fill-opacity:1;stroke:#000000;stroke-width:4.88007927;stroke-linecap:round;stroke-linejoin:miter;stroke-miterlimit:4;stroke-opacity:1;stroke-dasharray:none;stroke-dashoffset:0"
       d="m 324.28598,447.34566 63.1441,-0.34218 0.69072,35.2461 -63.45338,-0.0988 z"
       id="path3019"
       inkscape:connector-curvature="0"
       sodipodi:nodetypes="ccccc"
       inkscape:export-filename="/Users/sw/Sites/froide/media/img/topics/wirtschaft.png"
       inkscape:export-xdpi="22.222221"
       inkscape:export-ydpi="22.222221" />
    <rect
       style="fill:#000000;fill-opacity:1;stroke:#00000f;stroke-width:4.88007927;stroke-linejoin:miter;stroke-miterlimit:4;stroke-opacity:0.94117647;stroke-dasharray:none;stroke-dashoffset:0"
       id="rect788"
       width="11"
       height="48.512394"
       x="334.28076"
       y="398.67593"
       inkscape:export-filename="/Users/sw/Sites/froide/media/img/topics/wirtschaft.png"
       inkscape:export-xdpi="22.222221"
       inkscape:export-ydpi="22.222221" />
    <rect
       style="fill:#000000;fill-opacity:1;stroke:#00000f;stroke-width:4.88007927;stroke-linejoin:miter;stroke-miterlimit:4;stroke-opacity:0.94117647;stroke-dasharray:none;stroke-dashoffset:0"
       id="rect790"
       width="11"
       height="43.881668"
       x="357.28076"
       y="403.08618"
       inkscape:export-filename="/Users/sw/Sites/froide/media/img/topics/wirtschaft.png"
       inkscape:export-xdpi="22.222221"
       inkscape:export-ydpi="22.222221" />
    <path
       style="fill:none;stroke:#000000;stroke-width:4.88007927;stroke-linecap:round;stroke-linejoin:round;stroke-miterlimit:4;stroke-opacity:1;stroke-dasharray:none;stroke-dashoffset:0"
       d="m 384.53076,352.52076 c -8.51809,-0.15931 -16.03365,4.05858 -17.28125,9.88164 -6.99487,0.21346 -12.91119,3.53001 -13.8125,8.04176 -0.0319,0.15949 -0.0125,0.31685 -0.0312,0.47548 -5.67293,0.34688 -10.47206,3.23801 -11.25,7.13214 -0.90306,4.52051 3.91663,8.66406 10.75,9.26146 5.05935,0.44231 9.81994,-1.17644 12.3125,-3.8865 1.46808,0.55089 3.07823,0.93858 4.875,1.09566 2.91951,0.25524 5.73835,-0.13737 8.09375,-0.97163 0.35096,0.21132 0.71695,0.4056 1.09375,0.59952 1.32309,-0.45453 2.77954,-0.74196 4.3125,-0.82692 0.0191,-0.14566 0.0313,-0.28773 0.0625,-0.43413 0.88201,-4.14104 6.35128,-7.15856 12.78125,-7.3182 1.2969,-5.70044 9.11553,-9.67669 17.5625,-8.88935 2.50286,0.23329 4.78292,0.84437 6.71875,1.7572 0.6876,-0.26637 1.41158,-0.49778 2.15625,-0.70288 0.18147,-0.45521 0.34202,-0.90714 0.4375,-1.38508 1.31089,-6.56203 -6.23178,-12.63641 -16.8125,-13.56142 -4.70792,-0.41159 -9.22169,0.26026 -12.90625,1.71585 -2.11946,-0.98139 -4.61683,-1.64284 -7.34375,-1.88124 -0.5752,-0.0503 -1.15088,-0.0927 -1.71875,-0.10336 z"
       id="path3862"
       inkscape:export-filename="/Users/sw/Sites/froide/media/img/topics/wirtschaft.png"
       inkscape:export-xdpi="22.222221"
       inkscape:export-ydpi="22.222221"
       inkscape:connector-curvature="0" />
    <path
       inkscape:connector-curvature="0"
       id="path856"
       d="m 433.27707,366.71657 c -4.32108,-0.40276 -8.48377,0.1931 -11.88679,1.51137 -1.93583,-0.91282 -4.21645,-1.53411 -6.71931,-1.7674 -8.44697,-0.78734 -16.27803,3.19063 -17.57493,8.89107 -6.42997,0.15964 -11.8883,3.17501 -12.77031,7.31605 -0.0312,0.1464 -0.0346,0.29022 -0.0537,0.43588 -5.21687,0.28913 -9.63977,2.92535 -10.40104,6.49952 -0.88371,4.14908 3.47008,7.97401 9.74199,8.55861 4.64364,0.43284 9.04777,-1.02734 11.37046,-3.50456 1.3424,0.51388 2.83365,0.88655 4.4828,1.04026 2.67962,0.24977 5.26207,-0.10862 7.43634,-0.86289 2.48176,1.52026 5.70533,2.58058 9.33585,2.91898 9.30672,0.86748 17.87741,-3.31693 19.16022,-9.33979 0.005,-0.0256 0.0111,-0.0507 0.0162,-0.0762 6.77664,-1.02206 12.17047,-4.49976 13.14403,-9.07068 1.28281,-6.02285 -5.57056,-11.64495 -15.28191,-12.55015 z"
       style="fill:none;stroke:#000000;stroke-width:4.88007927;stroke-linecap:round;stroke-linejoin:round;stroke-miterlimit:4;stroke-opacity:1;stroke-dasharray:none;stroke-dashoffset:0"
       inkscape:export-filename="/Users/sw/Sites/froide/media/img/topics/wirtschaft.png"
       inkscape:export-xdpi="22.222221"
       inkscape:export-ydpi="22.222221" />
  </g>
</svg>
