<?xml version="1.0" encoding="UTF-8" standalone="no"?>
<!-- Created with Inkscape (http://www.inkscape.org/) -->

<svg
   xmlns:dc="http://purl.org/dc/elements/1.1/"
   xmlns:cc="http://creativecommons.org/ns#"
   xmlns:rdf="http://www.w3.org/1999/02/22-rdf-syntax-ns#"
   xmlns:svg="http://www.w3.org/2000/svg"
   xmlns="http://www.w3.org/2000/svg"
   xmlns:sodipodi="http://sodipodi.sourceforge.net/DTD/sodipodi-0.dtd"
   xmlns:inkscape="http://www.inkscape.org/namespaces/inkscape"
   width="145.21396"
   height="177.26349"
   id="svg5859"
   version="1.1"
   inkscape:version="0.48.0 r9654"
   sodipodi:docname="usine.svg">
  <title
     id="title3866">usine</title>
  <defs
     id="defs5861" />
  <sodipodi:namedview
     id="base"
     pagecolor="#ffffff"
     bordercolor="#666666"
     borderopacity="1.0"
     inkscape:pageopacity="0.0"
     inkscape:pageshadow="2"
     inkscape:zoom="2.3743319"
     inkscape:cx="30.97179"
     inkscape:cy="35.311913"
     inkscape:document-units="px"
     inkscape:current-layer="layer1"
     showgrid="false"
     inkscape:window-width="1442"
     inkscape:window-height="812"
     inkscape:window-x="19"
     inkscape:window-y="0"
     inkscape:window-maximized="0"
     fit-margin-top="0"
     fit-margin-left="0"
     fit-margin-right="0"
     fit-margin-bottom="0"
     showborder="false"
     inkscape:showpageshadow="false" />
  <metadata
     id="metadata5864">
    <rdf:RDF>
      <cc:Work
         rdf:about="">
        <dc:format>image/svg+xml</dc:format>
        <dc:type
           rdf:resource="http://purl.org/dc/dcmitype/StillImage" />
        <dc:title>usine</dc:title>
        <dc:date>2011-05-14</dc:date>
        <dc:creator>
          <cc:Agent>
            <dc:title>lmproulx</dc:title>
          </cc:Agent>
        </dc:creator>
        <cc:license
           rdf:resource="http://creativecommons.org/licenses/publicdomain/" />
      </cc:Work>
      <cc:License
         rdf:about="http://creativecommons.org/licenses/publicdomain/">
        <cc:permits
           rdf:resource="http://creativecommons.org/ns#Reproduction" />
        <cc:permits
           rdf:resource="http://creativecommons.org/ns#Distribution" />
        <cc:permits
           rdf:resource="http://creativecommons.org/ns#DerivativeWorks" />
      </cc:License>
    </rdf:RDF>
  </metadata>
  <g
     inkscape:label="Calque 1"
     inkscape:groupmode="layer"
     id="layer1"
     transform="translate(-323.28598,-341.18427)">
    <path
       style="fill:#ffffff;fill-opacity:1;stroke:#000000;stroke-width:2;stroke-linecap:round;stroke-linejoin:round;stroke-miterlimit:4;stroke-opacity:1;stroke-dasharray:none;stroke-dashoffset:0"
       d="m 341.79858,399.49028 c 0,2.79938 -3.72593,65.42922 -3.72593,65.42922 l 20.07622,-0.20967 -5.90406,-65.44389 z"
       id="path3013"
       inkscape:connector-curvature="0"
       sodipodi:nodetypes="ccccc" />
    <path
       style="fill:#ffffff;fill-opacity:1;stroke:#000000;stroke-width:2;stroke-linecap:round;stroke-linejoin:round;stroke-miterlimit:4;stroke-opacity:1;stroke-dasharray:none;stroke-dashoffset:0"
       d="m 365.8544,413.80156 -2.71143,52.68847 17.64887,-0.48738 -3.78046,-51.60546 z"
       id="path3015"
       inkscape:connector-curvature="0"
       sodipodi:nodetypes="ccccc" />
    <path
       style="fill:#ffffff;fill-opacity:1;stroke:#000000;stroke-width:2;stroke-linecap:round;stroke-linejoin:round;stroke-miterlimit:4;stroke-opacity:1;stroke-dasharray:none;stroke-dashoffset:0"
       d="m 394.21616,516.63253 72.44144,-10e-6 -10e-6,-49.69818 -31.16666,13.47748 -0.84235,-15.16216 -40.43242,16.84684 z"
       id="path3841"
       inkscape:connector-curvature="0"
       sodipodi:nodetypes="ccccccc" />
    <path
       style="fill:#ffffff;fill-opacity:1;stroke:#000000;stroke-width:2;stroke-linecap:round;stroke-linejoin:round;stroke-miterlimit:4;stroke-opacity:1;stroke-dasharray:none;stroke-dashoffset:0"
       d="m 324.28598,464.1683 71.1441,-0.51725 0.69072,53.27945 -70.45338,0.51727 z"
       id="path3019"
       inkscape:connector-curvature="0"
       sodipodi:nodetypes="ccccc" />
    <g
       id="g6434"
       transform="matrix(1.924047,0,0,1.3445358,-41.09263,-90.458393)"
       style="stroke-width:0.66097182;stroke-miterlimit:4;stroke-dasharray:none">
      <path
         inkscape:connector-curvature="0"
         id="path3507"
         d="m 203.2553,450.90859 0,0 z"
         style="fill:#ffffff;fill-opacity:1;fill-rule:evenodd;stroke:#000000;stroke-width:0.62173599;stroke-linecap:butt;stroke-linejoin:miter;stroke-miterlimit:4;stroke-opacity:1;stroke-dasharray:none;stroke-dashoffset:0;marker:none;visibility:visible;display:inline;overflow:visible;enable-background:accumulate" />
      <path
         inkscape:connector-curvature="0"
         sodipodi:nodetypes="ccccc"
         id="path3509"
         d="m 199.44693,451.8681 -0.14199,-20.37471 18.92044,-0.12832 0.22399,20.24555 z"
         style="fill:#ffffff;fill-opacity:1;fill-rule:evenodd;stroke:#000000;stroke-width:0.62173599;stroke-linecap:butt;stroke-linejoin:miter;stroke-miterlimit:4;stroke-opacity:1;stroke-dasharray:none;stroke-dashoffset:0;marker:none;visibility:visible;display:inline;overflow:visible;enable-background:accumulate" />
      <path
         inkscape:connector-curvature="0"
         id="path3511"
         d="m 208.73731,431.19147 -0.087,20.48939"
         style="fill:#ffffff;fill-opacity:1;fill-rule:evenodd;stroke:#000000;stroke-width:0.62173599;stroke-linecap:butt;stroke-linejoin:miter;stroke-miterlimit:4;stroke-opacity:1;stroke-dasharray:none;stroke-dashoffset:0;marker:none;visibility:visible;display:inline;overflow:visible;enable-background:accumulate"
         sodipodi:nodetypes="cc" />
    </g>
    <path
       inkscape:connector-curvature="0"
       id="path3017"
       d="m 404.22598,487.70812 0,18.01105 25.24058,-0.35316 -0.31161,-18.36418 z"
       style="fill:#ffffff;fill-opacity:1;stroke:#000000;stroke-width:1;stroke-linecap:round;stroke-linejoin:round;stroke-miterlimit:4;stroke-opacity:1;stroke-dasharray:none;stroke-dashoffset:3.00300009" />
    <path
       style="fill:#ffffff;fill-opacity:1;stroke:#000000;stroke-width:1;stroke-linecap:round;stroke-linejoin:round;stroke-miterlimit:4;stroke-opacity:1;stroke-dasharray:none;stroke-dashoffset:3.00300009"
       d="m 435.39264,487.70812 0,18.01105 25.24058,-0.35316 -0.31161,-18.36418 z"
       id="path3843"
       inkscape:connector-curvature="0" />
    <path
       inkscape:connector-curvature="0"
       id="path3862"
       d="m 408.56664,342.07569 c -4.70792,-0.62217 -9.22936,0.39691 -12.91392,2.59724 -2.11946,-1.4835 -4.61002,-2.48419 -7.33694,-2.84456 -9.20314,-1.21624 -17.66875,5.4006 -18.99952,14.7898 -6.99487,0.32267 -12.89206,5.33388 -13.79337,12.15403 -0.0319,0.2411 -0.0336,0.47772 -0.0524,0.7175 -5.67293,0.52437 -10.44871,4.9022 -11.22665,10.78874 -0.90306,6.83338 3.88878,13.0846 10.72215,13.98766 5.05935,0.66861 9.83132,-1.77449 12.32388,-5.87114 1.46808,0.83275 3.09612,1.43186 4.89289,1.66931 2.91951,0.38583 5.72468,-0.22784 8.08008,-1.48893 2.72213,2.47761 6.24502,4.19169 10.20054,4.71443 10.13986,1.34003 19.40741,-5.62331 20.71831,-15.54274 0.006,-0.0422 0.0113,-0.0834 0.0166,-0.12557 7.35994,-1.74457 13.18039,-7.5157 14.17527,-15.04383 1.31089,-9.91943 -6.22637,-19.1036 -16.80709,-20.50189 z"
       style="fill:#ffffff;fill-opacity:1;stroke:#000000;stroke-width:1;stroke-linecap:round;stroke-linejoin:round;stroke-miterlimit:4;stroke-opacity:1;stroke-dasharray:none;stroke-dashoffset:0" />
    <path
       style="fill:#ffffff;fill-opacity:1;stroke:#000000;stroke-width:1;stroke-linecap:round;stroke-linejoin:round;stroke-miterlimit:4;stroke-opacity:1;stroke-dasharray:none;stroke-dashoffset:0"
       d="m 434.68443,363.47373 c -4.32108,-0.60884 -8.48377,0.29189 -11.88679,2.28465 -1.93583,-1.37987 -4.21645,-2.31903 -6.71931,-2.67168 -8.44697,-1.19018 -16.27803,4.82309 -17.57493,13.4401 -6.42997,0.24132 -11.8883,4.79948 -12.77031,11.05925 -0.0312,0.2213 -0.0346,0.4387 -0.0537,0.65889 -5.21687,0.43707 -9.63977,4.42208 -10.40104,9.82495 -0.88371,6.27192 3.47008,12.05383 9.74199,12.93755 4.64364,0.65429 9.04777,-1.55298 11.37046,-5.29764 1.3424,0.77679 2.83365,1.34014 4.4828,1.5725 2.67962,0.37756 5.26207,-0.1642 7.43634,-1.30439 2.48176,2.29809 5.70533,3.90092 9.33585,4.41246 9.30672,1.31132 17.87741,-5.01402 19.16022,-14.11841 0.005,-0.0387 0.0111,-0.0766 0.0162,-0.11526 6.77664,-1.54498 12.17047,-6.80202 13.14403,-13.7116 1.28281,-9.1044 -5.57056,-17.60299 -15.28191,-18.97133 z"
       id="path3845"
       inkscape:connector-curvature="0" />
  </g>
</svg>
