<?xml version="1.0" encoding="utf-8"?>
<svg version="1.1" id="Layer_1" xmlns="http://www.w3.org/2000/svg" xmlns:xlink="http://www.w3.org/1999/xlink" x="0px" y="0px"
	 viewBox="0 0 69 61" style="enable-background:new 0 0 69 61;" xml:space="preserve">
<style type="text/css">
	.st0{fill:#000000;}
</style>
<title>Froide</title>
<g id="Logo">
	<polygon class="st0" points="60.8,23.8 57.6,19.4 34.8,36 12,19.4 8.8,23.8 34.7,42.6 34.8,42.5 34.9,42.6"/>
	<g>
		<g>
			<path class="st0" d="M68.9,24.1v-5.4h-8.5L34.8,0L9.1,18.7H0v5.4h4.4v30.5H0V60h68.9v-5.4h-2.7V24.1H68.9z M16.4,54.6H9.8V24.1
				h6.6V54.6z M47.6,54.6H21.9V24.1h25.7V54.6z M18.4,18.7L34.8,6.7l16.4,11.9H18.4z M60.7,54.6H53V24.1h7.7V54.6z"/>
		</g>
	</g>
</g>
</svg>
