<?xml version="1.0" standalone="no"?>
<!DOCTYPE svg PUBLIC "-//W3C//DTD SVG 20010904//EN"
 "http://www.w3.org/TR/2001/REC-SVG-20010904/DTD/svg10.dtd">
<svg version="1.0" xmlns="http://www.w3.org/2000/svg"
 width="1104.000000pt" height="1104.000000pt" viewBox="0 0 1104.000000 1104.000000"
 preserveAspectRatio="xMidYMid meet">
<metadata>
Created by potrace 1.11, written by Peter Selinger 2001-2013
</metadata>
<g transform="translate(0.000000,1104.000000) scale(0.100000,-0.100000)"
fill="#000000" stroke="none">
<path d="M5547 10385 c-9 -7 -27 -20 -40 -29 -12 -8 -80 -59 -151 -111 -71
-52 -131 -95 -133 -95 -3 0 -18 -10 -33 -22 -15 -13 -38 -31 -51 -40 -13 -9
-47 -34 -76 -55 -28 -21 -61 -45 -73 -53 -12 -8 -31 -23 -43 -32 -83 -63 -118
-88 -127 -88 -6 0 -10 -4 -10 -8 0 -4 -13 -16 -30 -25 -16 -10 -35 -23 -42
-30 -7 -7 -36 -28 -63 -47 -28 -19 -55 -39 -62 -45 -7 -5 -62 -46 -123 -90
-61 -44 -151 -109 -200 -145 -49 -36 -98 -72 -110 -80 -12 -8 -59 -42 -104
-75 -44 -33 -137 -100 -206 -150 -69 -49 -129 -93 -135 -98 -23 -18 -224 -164
-261 -190 -22 -15 -50 -36 -62 -47 -12 -11 -24 -20 -28 -20 -3 0 -19 -10 -34
-22 -15 -13 -37 -30 -49 -38 -13 -8 -100 -72 -194 -143 -95 -70 -179 -130
-187 -134 -8 -4 -17 -9 -20 -12 -3 -4 -34 -28 -70 -53 -97 -70 -153 -111 -277
-201 -61 -45 -121 -89 -133 -97 -54 -38 -347 -253 -367 -269 -12 -10 -24 -16
-27 -13 -3 3 -8 -3 -12 -12 -3 -9 -10 -16 -16 -16 -5 0 -16 -6 -23 -12 -8 -7
-30 -24 -50 -38 -20 -14 -50 -37 -68 -52 -18 -15 -38 -28 -44 -28 -7 0 -13 -3
-13 -8 0 -4 -23 -22 -51 -41 -28 -18 -59 -40 -68 -48 -9 -8 -56 -44 -106 -79
-49 -35 -96 -69 -103 -75 -9 -7 -239 -10 -742 -11 l-730 0 2 -431 3 -432 350
0 350 -1 0 -2439 0 -2440 -350 0 -350 0 -3 -433 -2 -432 27 0 c16 0 36 0 46 0
9 0 24 0 32 0 8 0 22 0 30 0 8 0 22 0 30 0 8 0 22 0 30 0 8 0 22 0 30 0 8 0
22 0 30 0 8 0 22 0 30 0 8 0 22 0 30 0 8 0 22 0 30 0 8 0 22 0 30 0 8 0 22 0
30 0 8 0 22 0 30 0 8 0 22 0 30 0 8 0 22 0 30 0 8 0 22 0 30 0 8 0 22 0 30 0
8 0 22 0 30 0 8 0 22 0 30 0 8 0 22 0 30 0 8 0 22 0 30 0 8 0 22 0 30 0 8 0
22 0 30 0 8 0 22 0 30 0 8 0 22 0 30 0 8 0 22 0 30 0 8 0 22 0 30 0 8 0 22 0
30 0 8 0 22 0 30 0 8 0 22 0 30 0 8 0 22 0 30 0 8 0 22 0 30 0 8 0 22 0 30 0
8 0 22 0 30 0 8 0 22 0 30 0 8 0 22 0 30 0 8 0 22 0 30 0 8 0 22 0 30 0 8 0
22 0 30 0 8 0 22 0 30 0 8 0 22 0 30 0 8 0 22 0 30 0 8 0 22 0 30 0 8 0 22 0
30 0 8 0 22 0 30 0 8 0 22 0 30 0 8 0 22 0 30 0 8 0 22 0 30 0 8 0 22 0 30 0
8 0 22 0 30 0 8 0 22 0 30 0 8 0 22 0 30 0 8 0 22 0 30 0 8 0 22 0 30 0 8 0
22 0 30 0 8 0 22 0 30 0 8 0 22 0 30 0 8 0 22 0 30 0 8 0 22 0 30 0 8 0 22 0
30 0 8 0 22 0 30 0 8 0 22 0 30 0 8 0 22 0 30 0 8 0 22 0 30 0 8 0 22 0 30 0
8 0 22 0 30 0 8 0 22 0 30 0 8 0 22 0 30 0 8 0 22 0 30 0 8 0 22 0 30 0 8 0
22 0 30 0 8 0 22 0 30 0 8 0 22 0 30 0 8 0 22 0 30 0 8 0 22 0 30 0 8 0 22 0
30 0 8 0 22 0 30 0 8 0 22 0 30 0 8 0 22 0 30 0 8 0 22 0 30 0 8 0 22 0 30 0
8 0 22 0 30 0 8 0 22 0 30 0 8 0 22 0 30 0 8 0 22 0 30 0 8 0 22 0 30 0 8 0
22 0 30 0 8 0 22 0 30 0 8 0 22 0 30 0 8 0 22 0 30 0 8 0 22 0 30 0 8 0 22 0
30 0 8 0 22 0 30 0 8 0 22 0 30 0 8 0 22 0 30 0 8 0 22 0 30 0 8 0 22 0 30 0
8 0 22 0 30 0 8 0 22 0 30 0 8 0 22 0 30 0 8 0 22 0 30 0 8 0 22 0 30 0 8 0
22 0 30 0 8 0 22 0 30 0 8 0 22 0 30 0 8 0 22 0 30 0 8 0 22 0 30 0 8 0 22 0
30 0 8 0 22 0 30 0 8 0 22 0 30 0 8 0 22 0 30 0 8 0 22 0 30 0 8 0 22 0 30 0
8 0 22 0 30 0 8 0 22 0 30 0 8 0 22 0 30 0 8 0 22 0 30 0 8 0 22 0 30 0 8 0
22 0 30 0 8 0 22 0 30 0 8 0 22 0 30 0 8 0 22 0 30 0 8 0 22 0 30 0 8 0 22 0
30 0 8 0 22 0 30 0 8 0 22 0 30 0 8 0 22 0 30 0 8 0 22 0 30 0 8 0 22 0 30 0
8 0 22 0 30 0 8 0 22 0 30 0 8 0 22 0 30 0 8 0 22 0 30 0 8 0 22 0 30 0 8 0
22 0 30 0 8 0 22 0 30 0 8 0 22 0 30 0 8 0 22 0 30 0 8 0 22 0 30 0 8 0 22 0
30 0 8 0 22 0 30 0 8 0 22 0 30 0 8 0 22 0 30 0 8 0 22 0 30 0 8 0 22 0 30 0
8 0 22 0 30 0 8 0 22 0 30 0 8 0 22 0 30 0 8 0 22 0 30 0 8 0 22 0 30 0 8 0
22 0 30 0 8 0 22 0 30 0 8 0 22 0 30 0 8 0 22 0 30 0 8 0 22 0 30 0 8 0 22 0
30 0 8 0 22 0 30 0 8 0 22 0 30 0 8 0 22 0 30 0 8 0 22 0 30 0 8 0 22 0 30 0
8 0 22 0 30 0 8 0 22 0 30 0 8 0 22 0 30 0 8 0 22 0 30 0 8 0 22 0 30 0 8 0
22 0 30 0 8 0 22 0 30 0 8 0 22 0 30 0 8 0 22 0 30 0 8 0 22 0 30 0 8 0 22 0
30 0 8 0 22 0 30 0 8 0 22 0 30 0 8 0 22 0 30 0 8 0 22 0 30 0 8 0 22 0 30 0
8 0 22 0 30 0 8 0 22 0 30 0 8 0 22 0 30 0 8 0 22 0 30 0 8 0 22 0 30 0 8 0
22 0 30 0 8 0 22 0 30 0 8 0 22 0 30 0 8 0 22 0 30 0 8 0 22 0 30 0 8 0 22 0
30 0 8 0 22 0 30 0 8 0 22 0 30 0 8 0 22 0 30 0 8 0 22 0 30 0 8 0 22 0 30 0
8 0 22 0 30 0 8 0 22 0 30 0 8 0 22 0 30 0 8 0 22 0 30 0 8 0 22 0 30 0 8 0
22 0 30 0 8 0 22 0 30 0 8 0 22 0 30 0 8 0 22 0 30 0 8 0 22 0 30 0 8 0 22 0
30 0 8 0 22 0 30 0 8 0 22 0 30 0 8 0 22 0 30 0 8 0 22 0 30 0 8 0 22 0 30 0
8 0 22 0 30 0 8 0 22 0 30 0 8 0 22 0 30 0 8 0 22 0 30 0 8 0 22 0 30 0 8 0
22 0 30 0 8 0 22 0 30 0 8 0 22 0 30 0 8 0 22 0 30 0 8 0 22 0 30 0 8 0 22 0
30 0 8 0 22 0 30 0 8 0 22 0 30 0 8 0 22 0 30 0 8 0 22 0 30 0 8 0 22 0 30 0
8 0 22 0 30 0 8 0 22 0 30 0 8 0 22 0 30 0 8 0 22 0 30 0 8 0 22 0 30 0 8 0
22 0 30 0 8 0 22 0 30 0 8 0 22 0 30 0 8 0 22 0 30 0 8 0 22 0 30 0 8 0 22 0
30 0 8 0 22 0 30 0 8 0 22 0 30 0 8 0 22 0 30 0 8 0 22 0 30 0 8 0 22 0 30 0
8 0 22 0 30 0 8 0 22 0 30 0 8 0 22 0 30 0 8 0 22 0 30 0 8 0 22 0 30 0 8 0
22 0 30 0 8 0 22 0 30 0 8 0 22 0 30 0 8 0 22 0 30 0 8 0 22 0 30 0 8 0 22 0
30 0 8 0 22 0 30 0 8 0 22 0 30 0 8 0 22 0 30 0 8 0 22 0 30 0 8 0 22 0 30 0
8 0 22 0 30 0 8 0 22 0 30 0 8 0 22 0 30 0 8 0 22 0 30 0 8 0 22 0 30 0 8 0
22 0 30 0 8 0 22 0 30 0 8 0 22 0 30 0 8 0 22 0 30 0 8 0 22 0 30 0 8 0 22 0
30 0 8 0 22 0 30 0 8 0 22 0 30 0 8 0 22 0 30 0 8 0 22 0 30 0 8 0 22 0 30 0
8 0 22 0 30 0 8 0 22 0 30 0 8 0 22 0 30 0 8 0 22 0 30 0 8 0 22 0 30 0 8 0
22 0 30 0 8 0 22 0 30 0 8 0 22 0 30 0 8 0 22 0 30 0 8 0 22 0 30 0 8 0 22 0
30 0 8 0 22 0 30 0 8 0 22 0 30 0 8 0 22 0 30 0 8 0 22 0 30 0 8 0 22 0 30 0
8 0 22 0 30 0 8 0 22 0 30 0 8 0 22 0 30 0 8 0 22 0 30 0 8 0 22 0 30 0 8 0
22 0 30 0 8 0 22 0 30 0 8 0 22 0 30 0 8 0 22 0 30 0 8 0 22 0 30 0 8 0 22 0
30 0 8 0 22 0 30 0 8 0 22 0 30 0 8 0 22 0 30 0 8 0 22 0 30 0 8 0 22 0 30 0
8 0 22 0 30 0 8 0 22 0 30 0 8 0 22 0 30 0 8 0 22 0 30 0 8 0 22 0 30 0 8 0
22 0 30 0 8 0 22 0 30 0 8 0 22 0 30 0 8 0 22 0 30 0 8 0 22 0 30 0 8 0 22 0
30 0 8 0 22 0 30 0 8 0 22 0 30 0 8 0 22 0 30 0 8 0 22 0 30 0 8 0 22 0 30 0
8 0 22 0 30 0 8 0 22 0 30 0 8 0 22 0 30 0 8 0 22 0 30 0 8 0 22 0 30 0 8 0
22 0 30 0 8 0 22 0 30 0 8 0 22 0 30 0 8 0 22 0 30 0 8 0 22 0 30 0 8 0 22 0
30 0 8 0 22 0 30 0 8 0 22 0 30 0 8 0 22 0 30 0 8 0 22 0 30 0 8 0 22 0 30 0
8 0 22 0 30 0 8 0 22 0 30 0 8 0 22 0 30 0 8 0 21 0 28 0 6 -1 31 1 55 2 23 2
42 0 42 -4 0 -4 14 -3 30 2 17 5 30 5 30 0 0 -5 13 -5 30 0 17 5 30 5 30 0 0
-5 13 -5 30 0 17 5 30 5 30 0 0 -5 13 -5 30 0 17 5 30 5 30 0 0 -5 13 -5 30 0
17 5 30 5 30 0 0 -5 13 -5 30 0 17 5 30 5 30 0 0 -5 13 -5 30 0 17 5 30 5 30
0 0 -5 13 -5 30 0 17 5 30 5 30 0 0 -5 13 -5 30 0 17 5 30 6 30 2 0 -4 16 -7
35 -7 19 0 35 3 35 6 0 3 10 5 22 5 l22 -1 1 423 c0 233 -2 427 -5 431 -3 3
-99 6 -215 6 l-210 0 -3 2436 c-2 2315 -1 2437 15 2441 10 2 107 3 216 3 108
-1 198 1 198 4 3 17 4 838 1 848 -3 9 -165 12 -677 12 -600 -1 -676 1 -704 15
-17 9 -31 21 -31 26 0 5 -8 11 -19 15 -10 3 -31 17 -47 30 -16 14 -54 42 -84
62 -30 21 -57 40 -60 43 -18 18 -91 70 -99 70 -5 0 -11 4 -13 8 -1 4 -43 37
-93 72 -49 36 -92 67 -95 70 -3 3 -45 34 -95 70 -49 35 -94 68 -100 72 -5 5
-35 26 -65 48 -30 22 -67 49 -81 60 -35 27 -80 59 -149 106 -30 21 -66 48 -80
61 -14 13 -28 23 -32 23 -3 0 -13 6 -20 13 -7 7 -29 24 -48 37 -19 13 -39 28
-45 33 -5 4 -44 32 -85 63 -41 30 -82 60 -91 67 -8 6 -23 17 -31 22 -9 6 -62
44 -118 85 -56 41 -109 80 -119 85 -9 6 -23 16 -31 23 -13 11 -116 87 -189
140 -93 66 -128 92 -143 106 -10 9 -20 16 -23 16 -4 0 -201 145 -238 175 -9 8
-20 15 -23 15 -5 0 -28 17 -81 60 -7 6 -16 10 -22 10 -5 0 -11 4 -13 9 -1 4
-129 100 -283 212 -154 111 -282 205 -285 208 -3 4 -27 22 -55 40 -27 19 -52
37 -55 40 -3 4 -27 22 -55 41 -27 19 -54 38 -60 42 -91 70 -116 88 -124 88 -5
0 -11 3 -13 8 -4 9 -76 62 -303 226 -49 36 -94 69 -100 73 -5 5 -59 44 -120
88 -60 44 -112 82 -115 86 -16 19 -46 27 -63 14z m268 -1235 c61 -44 120 -88
133 -97 13 -9 33 -25 44 -35 12 -10 24 -18 28 -18 4 0 18 -10 31 -21 13 -12
35 -29 49 -37 14 -9 53 -38 87 -64 34 -27 67 -48 73 -48 5 0 10 -3 10 -7 0 -5
17 -19 38 -33 20 -14 55 -38 78 -55 22 -16 51 -38 65 -48 162 -117 207 -150
222 -162 9 -8 21 -15 26 -15 5 0 11 -4 13 -8 3 -7 188 -144 226 -167 9 -5 19
-12 22 -15 3 -3 73 -55 155 -115 83 -60 152 -112 153 -117 2 -4 8 -8 12 -8 8
0 252 -174 302 -215 10 -8 37 -27 60 -42 24 -15 49 -34 56 -41 8 -6 35 -26 60
-44 48 -33 62 -44 87 -65 7 -7 16 -13 19 -13 5 0 163 -115 198 -145 9 -7 27
-19 39 -26 13 -6 32 -20 43 -30 11 -11 23 -19 28 -19 4 0 8 -3 8 -8 0 -5
-5166 -9 -5203 -3 -5 0 22 22 60 47 37 26 70 50 73 53 3 4 16 14 30 23 59 40
246 178 261 192 9 9 21 16 27 16 7 0 12 4 12 8 0 4 14 16 31 26 18 10 40 26
49 35 9 9 43 34 75 56 31 22 72 51 90 65 18 14 44 33 57 42 59 43 529 387 551
404 13 10 35 26 47 34 70 48 156 113 162 123 4 7 8 8 8 2 0 -6 3 -6 8 0 4 6
43 37 87 68 44 32 91 66 105 77 14 11 72 53 130 95 58 42 112 81 120 88 8 7
31 23 50 37 19 13 40 28 45 33 6 4 35 25 65 47 30 22 66 48 79 58 13 9 30 23
37 30 7 6 15 12 18 12 3 0 50 33 104 73 53 40 113 84 132 97 19 14 43 32 54
42 21 19 29 14 271 -162z m1796 -2610 c1 -3 3 -95 4 -205 1 -131 -2 -203 -9
-210 -6 -6 -28 -21 -48 -35 -21 -14 -38 -28 -38 -32 0 -5 -4 -8 -10 -8 -8 0
-106 -69 -160 -113 -8 -7 -55 -41 -105 -76 -49 -35 -91 -68 -93 -72 -2 -5 -8
-9 -13 -9 -5 0 -28 -15 -52 -32 -24 -18 -56 -42 -71 -53 -16 -11 -37 -29 -47
-39 -11 -11 -19 -17 -19 -13 0 5 -184 -127 -233 -168 -9 -8 -21 -15 -25 -15
-4 0 -21 -14 -39 -30 -18 -17 -34 -30 -37 -30 -3 0 -62 -42 -131 -92 -69 -51
-134 -97 -143 -103 -10 -5 -24 -16 -32 -23 -13 -11 -129 -96 -221 -162 -19
-13 -38 -28 -44 -33 -5 -4 -40 -29 -76 -55 -114 -81 -122 -87 -141 -104 -10
-10 -20 -18 -23 -18 -5 0 -147 -101 -155 -111 -3 -3 -22 -17 -43 -31 l-39 -26
-61 44 c-34 25 -77 54 -94 66 -18 11 -33 24 -33 29 0 5 -5 9 -10 9 -9 0 -71
43 -135 93 -9 7 -90 65 -140 101 -101 73 -497 363 -520 381 -16 14 -34 25 -39
25 -5 0 -16 8 -25 18 -9 10 -44 37 -78 60 -35 23 -71 48 -80 56 -37 30 -183
136 -188 136 -3 0 -13 7 -22 16 -10 9 -56 43 -103 77 -47 34 -86 65 -88 70 -2
4 -10 7 -17 7 -8 0 -19 8 -24 18 -6 9 -11 13 -11 7 0 -6 -3 -6 -8 0 -13 18
-89 75 -101 75 -6 0 -11 4 -11 10 0 5 -12 16 -27 24 -16 8 -41 26 -58 40 -16
14 -33 26 -36 26 -3 0 -15 8 -27 18 -11 9 -43 33 -71 52 -28 19 -51 42 -52 50
-6 49 -4 386 2 390 4 3 928 5 2053 5 1125 0 2047 -2 2047 -5z m2100 -10 c3
-84 3 -4860 -1 -4861 -22 -6 -1214 -3 -1223 3 -7 4 -8 8 -3 8 5 0 3 6 -3 14
-8 10 -9 16 -1 21 7 4 7 12 0 26 -8 13 -7 25 0 39 8 14 8 20 0 20 -8 0 -8 6 0
20 8 14 8 20 0 20 -8 0 -8 6 0 20 8 14 8 20 0 20 -6 0 -8 5 -4 11 10 17 11 52
2 71 -5 10 -4 19 2 23 7 4 7 12 0 25 -7 13 -7 21 1 26 7 4 7 10 1 16 -7 7 -7
19 -2 34 6 16 6 24 -1 24 -6 0 -6 7 1 19 7 14 7 22 0 26 -8 5 -8 11 -1 19 6 7
8 16 5 19 -10 10 -11 50 -2 69 6 12 5 18 -2 18 -8 0 -8 6 0 20 8 14 8 20 0 20
-8 0 -8 6 0 20 8 14 8 20 0 20 -6 0 -8 5 -5 11 9 13 12 79 5 79 -3 0 -5 24 -5
54 0 30 3 52 7 49 5 -2 4 7 -2 21 -6 16 -6 26 0 26 6 0 6 9 0 25 -6 15 -6 26
0 30 6 4 7 13 2 23 -5 9 -6 28 -2 42 4 14 3 33 -2 42 -5 10 -4 19 2 23 6 4 6
15 0 30 -6 17 -6 25 1 25 6 0 7 5 3 11 -9 15 -8 114 1 128 3 6 2 11 -3 11 -5
0 -6 17 -2 39 4 21 3 46 -2 54 -5 9 -4 18 1 22 7 4 7 15 1 30 -6 17 -6 25 1
25 6 0 7 5 3 11 -9 15 -8 114 1 128 3 6 2 11 -3 11 -5 0 -6 17 -2 39 4 21 3
46 -2 54 -5 9 -4 18 1 22 7 4 7 15 1 30 -6 17 -6 25 1 25 6 0 7 5 3 11 -9 15
-8 114 1 128 3 6 2 11 -3 11 -5 0 -6 17 -2 39 4 21 3 46 -2 54 -5 9 -4 18 1
22 7 4 7 15 1 30 -6 17 -6 25 1 25 6 0 7 5 3 11 -9 15 -8 114 1 128 3 6 2 11
-3 11 -4 0 -6 23 -2 50 4 28 4 50 1 50 -3 0 -6 24 -6 54 0 30 3 52 7 49 5 -2
4 7 -2 21 -6 16 -6 26 0 26 6 0 6 9 0 25 -6 15 -6 26 1 30 5 4 6 11 3 17 -10
17 -11 51 -2 71 6 11 5 17 -2 17 -8 0 -8 6 0 20 8 14 8 20 0 20 -8 0 -8 6 0
20 8 14 8 20 0 20 -6 0 -8 5 -4 11 10 17 11 52 2 71 -5 10 -4 19 2 23 7 4 7
12 0 25 -7 13 -7 21 1 26 7 4 7 10 1 16 -7 7 -7 19 -2 34 6 16 6 24 -1 24 -6
0 -6 7 1 19 7 14 7 22 0 26 -8 5 -8 11 -1 19 6 7 8 16 5 19 -10 10 -11 50 -2
70 6 11 5 17 -2 17 -8 0 -8 6 0 20 8 14 8 20 0 20 -8 0 -8 6 0 20 8 14 8 20 0
20 -6 0 -8 5 -5 11 9 13 12 79 5 79 -3 0 -5 24 -5 54 0 30 3 52 7 49 5 -2 4 7
-2 21 -6 16 -6 26 0 26 6 0 6 9 0 25 -6 15 -6 26 0 30 6 4 7 13 2 23 -5 9 -6
28 -2 42 4 14 3 33 -2 42 -5 10 -4 19 2 23 6 4 6 15 0 30 -6 17 -6 25 1 25 6
0 7 5 3 11 -9 15 -8 114 1 128 3 6 2 11 -4 11 -6 0 -6 11 -1 28 4 16 4 36 -2
45 -6 11 -5 17 2 17 7 0 8 6 1 19 -11 20 -15 16 109 107 36 26 82 60 102 76
20 15 42 28 47 28 6 0 11 3 11 8 0 4 17 18 37 32 21 14 45 30 53 37 8 7 92 67
185 135 94 67 172 126 173 130 2 4 9 8 15 8 7 0 26 12 42 28 16 15 32 27 35
27 3 0 32 21 65 46 33 26 81 60 107 76 26 17 45 33 41 37 -3 3 -1 6 5 6 6 0
46 24 87 54 75 54 114 66 116 36z m-8119 -68 c3 -7 191 -146 226 -167 9 -5 19
-12 22 -16 3 -3 100 -73 215 -157 116 -83 215 -155 220 -159 6 -5 33 -24 60
-43 28 -19 52 -37 55 -40 3 -3 21 -17 40 -30 19 -13 40 -29 46 -35 6 -5 38
-28 72 -50 33 -22 65 -49 69 -60 5 -11 8 -924 8 -2030 l0 -2010 -528 0 c-352
0 -527 3 -528 10 0 14 0 4755 0 4778 1 17 16 24 23 9z m2064 -1502 c64 -47
124 -89 133 -95 9 -5 18 -12 21 -15 3 -3 21 -17 40 -30 19 -14 40 -28 45 -32
95 -73 116 -88 124 -88 5 0 11 -4 13 -8 2 -4 35 -30 73 -57 39 -28 77 -55 85
-62 57 -45 112 -83 119 -83 5 0 11 -4 13 -8 2 -4 86 -68 188 -142 233 -168
382 -277 395 -288 6 -4 32 -23 60 -42 27 -19 54 -39 60 -43 5 -4 35 -26 65
-48 30 -22 64 -47 75 -55 11 -8 74 -53 140 -101 66 -48 126 -93 133 -100 7 -7
18 -13 23 -13 5 0 17 -8 27 -17 40 -38 62 -52 67 -44 3 5 13 7 23 5 10 -3 46
17 89 51 40 30 75 55 77 55 4 0 106 75 196 143 9 7 38 28 65 47 56 39 58 40
101 75 18 14 36 25 42 25 5 0 12 7 16 15 3 8 10 15 16 15 9 0 81 50 100 70 3
3 31 23 62 44 32 21 65 46 75 55 10 9 35 27 56 40 21 13 43 28 50 35 6 7 35
28 62 47 28 19 77 55 110 79 33 25 69 52 82 60 47 33 268 194 273 199 3 3 13
11 22 16 18 11 365 262 382 277 23 19 151 108 156 108 3 0 6 -762 5 -1692 l0
-1693 -2052 0 c-1826 0 -2053 1 -2054 15 -1 8 -2 774 -3 1702 -1 1591 0 1687
16 1675 9 -7 70 -50 134 -97z"/>
</g>
</svg>
