<svg xmlns="http://www.w3.org/2000/svg" viewBox="0 0 84.85 77.12"><defs><style>.cls-1{fill:#4886ff;}.cls-2,.cls-6{fill:#fff;}.cls-2,.cls-3,.cls-4{stroke:#c6d2dc;stroke-miterlimit:10;}.cls-2,.cls-3{stroke-width:5px;}.cls-3,.cls-4{fill:none;}.cls-4{stroke-width:2.5px;}.cls-5{fill:#ff4a4a;}</style></defs><title>icon-antwort verspatet</title><g id="Ebene_2" data-name="Ebene 2"><g id="Ebene_1-2" data-name="Ebene 1"><rect class="cls-1" x="77.51" y="0.52" width="5" height="8.85" transform="translate(17.97 55.7) rotate(-42.82)"/><path class="cls-2" d="M16.45,12.2h46.6a6,6,0,0,1,6,5.95V43.74a6,6,0,0,1-6,6H60V63.08L46.62,49.7H16.45a6,6,0,0,1-5.95-6V18.15A6,6,0,0,1,16.45,12.2Z"/><path class="cls-3" d="M2.5,35.2V51.74a6,6,0,0,0,5.95,6H11.5V71.08L24.88,57.7H42"/><line class="cls-4" x1="20.5" y1="27.2" x2="59" y2="27.2"/><line class="cls-4" x1="20.5" y1="34.45" x2="59" y2="34.45"/><circle class="cls-1" cx="61.47" cy="20.86" r="19.31"/><path class="cls-5" d="M61.5,21.2l12-10.5s-5-6-12-5.5v16"/><path class="cls-6" d="M74.07,10.27S65.15,22.61,63.58,24a3.75,3.75,0,1,1-4.9-5.68C60.25,16.93,74.07,10.27,74.07,10.27Z"/><circle class="cls-1" cx="61.47" cy="20.86" r="2.5"/></g></g></svg>