<?xml version="1.0" encoding="utf-8"?>
<!-- Generator: Adobe Illustrator 21.0.0, SVG Export Plug-In . SVG Version: 6.00 Build 0)  -->
<svg version="1.1" id="Layer_1" xmlns="http://www.w3.org/2000/svg" xmlns:xlink="http://www.w3.org/1999/xlink" x="0px" y="0px"
	 viewBox="0 0 81.9 71.1" style="enable-background:new 0 0 81.9 71.1;" xml:space="preserve">
<style type="text/css">
	.st0{fill:#F6CC45;}
</style>
<title>icon-gebuhr-wartet</title>
<circle class="st0" cx="41" cy="35.5" r="35.5"/>
<path d="M26.7,30.2h2.4c1.3-7.3,6.1-10.9,12.2-10.9c3.9-0.2,7.6,1.8,9.5,5.3l-4.2,2.3c-1-2-3.1-3.3-5.4-3.2c-3.7,0-6.3,2-7.2,6.5
	h9.9l-2.2,4.3h-8.1v2.8h10.3l-2.2,4.3h-7.7c0.9,4.6,3.5,6.6,7.2,6.6c2.2,0,4.3-1.2,5.3-3.3l4.1,2.3c-1.9,3.4-5.5,5.5-9.5,5.3
	c-6.1,0-10.8-3.6-12.2-10.9h-4.5l2.2-4.3h2.2v-2.7h-4.2L26.7,30.2z"/>
</svg>
