<svg xmlns="http://www.w3.org/2000/svg" viewBox="0 0 77.44 64.13"><defs><style>.cls-1{fill:none;stroke:#000;stroke-width:1.8px;stroke-dasharray:2.4;}.cls-1,.cls-2{stroke-miterlimit:10;}.cls-2{fill:#c6d2dc;stroke:#fff;stroke-width:1.19px;}</style></defs><title>icon-information-noijct-vorhanden</title><g id="Ebene_2" data-name="Ebene 2"><g id="Ebene_1-2" data-name="Ebene 1"><line class="cls-1" x1="13.2" y1="19.8" x2="59.4" y2="19.8"/><line class="cls-1" x1="13.2" y1="28.5" x2="59.4" y2="28.5"/><path class="cls-1" d="M64,.9H8.05A7.15,7.15,0,0,0,.9,8.05v30.7A7.15,7.15,0,0,0,8.05,45.9H11.7V62L27.76,45.9H64a7.15,7.15,0,0,0,7.15-7.15V8.05A7.15,7.15,0,0,0,64,.9Z"/><polygon class="cls-2" points="76.6 55.52 57.1 36.02 64.75 28.37 39.16 25.21 43.08 50.04 50.02 43.1 69.52 62.6 76.6 55.52"/></g></g></svg>