<?xml version="1.0" encoding="UTF-8" standalone="no"?>
<!-- Generator: Adobe Illustrator 14.0.0, SVG Export Plug-In . SVG Version: 6.00 Build 43363)  -->

<svg
   xmlns:dc="http://purl.org/dc/elements/1.1/"
   xmlns:cc="http://creativecommons.org/ns#"
   xmlns:rdf="http://www.w3.org/1999/02/22-rdf-syntax-ns#"
   xmlns:svg="http://www.w3.org/2000/svg"
   xmlns="http://www.w3.org/2000/svg"
   xmlns:sodipodi="http://sodipodi.sourceforge.net/DTD/sodipodi-0.dtd"
   xmlns:inkscape="http://www.inkscape.org/namespaces/inkscape"
   version="1.0"
   id="Layer_1"
   x="0px"
   y="0px"
   width="100px"
   height="82.043px"
   viewBox="0 0 100 82.043"
   enable-background="new 0 0 100 82.043"
   xml:space="preserve"
   inkscape:version="0.48+devel r10069"
   sodipodi:docname="noun_project_351_2.svg"
   inkscape:export-filename="/Users/sw/Sites/froide/media/img/topics/wirtschaft.png"
   inkscape:export-xdpi="31.5"
   inkscape:export-ydpi="31.5"><metadata
   id="metadata9"><rdf:RDF><cc:Work
       rdf:about=""><dc:format>image/svg+xml</dc:format><dc:type
         rdf:resource="http://purl.org/dc/dcmitype/StillImage" /></cc:Work></rdf:RDF></metadata><defs
   id="defs7" /><sodipodi:namedview
   pagecolor="#ffffff"
   bordercolor="#666666"
   borderopacity="1"
   objecttolerance="10"
   gridtolerance="10"
   guidetolerance="10"
   inkscape:pageopacity="0"
   inkscape:pageshadow="2"
   inkscape:window-width="640"
   inkscape:window-height="480"
   id="namedview5"
   showgrid="false"
   inkscape:zoom="3.1934474"
   inkscape:cx="50"
   inkscape:cy="41.0215"
   inkscape:window-x="1540"
   inkscape:window-y="217"
   inkscape:window-maximized="0"
   inkscape:current-layer="Layer_1" />
<path
   d="M94.799,38.418l-11.799,6V0h-8v48.486l-5.201-10.068l-6.298,3.202V0H55.5v45.688L50,48.486l-5.201-10.068L25,48.486  l-5.201-10.068L0,48.486v33.557h25h25h25h25V48.486L94.799,38.418z M21,73.678H4V63.199h17V73.678z M45.999,73.678H29V63.199h16.999  V73.678z M71,73.678H54V63.199h17V73.678z M95.999,73.678H79V63.199h16.999V73.678z"
   id="path3" />
</svg>