<?xml version="1.0" encoding="utf-8"?>
<!-- Generator: Adobe Illustrator 14.0.0, SVG Export Plug-In . SVG Version: 6.00 Build 43363)  -->
<!DOCTYPE svg PUBLIC "-//W3C//DTD SVG 1.0//EN" "http://www.w3.org/TR/2001/REC-SVG-20010904/DTD/svg10.dtd">
<svg version="1.0" id="Layer_1" xmlns="http://www.w3.org/2000/svg" xmlns:xlink="http://www.w3.org/1999/xlink" x="0px" y="0px"
	 width="68.631px" height="100px" viewBox="0 7.875 68.631 100" enable-background="new 0 7.875 68.631 100" xml:space="preserve">
<polygon points="32.557,7.875 29.088,7.875 24.022,42.763 31.552,42.763 "/>
<polygon points="36.057,7.875 37.064,42.763 44.623,42.763 39.543,7.875 "/>
<polygon points="37.389,53.818 46.218,53.818 54.086,107.875 38.97,107.875 "/>
<polygon points="31.233,53.818 22.404,53.818 14.536,107.875 29.652,107.875 "/>
<polygon points="68.631,45.674 0,45.674 0,47.996 15.133,47.996 14.218,52.07 20.104,52.07 19.206,47.996 49.44,47.996 
	48.525,52.07 54.411,52.07 53.5,47.996 68.631,47.996 "/>
</svg>
