<?xml version="1.0" encoding="utf-8"?>
<!-- Generator: Adobe Illustrator 14.0.0, SVG Export Plug-In . SVG Version: 6.00 Build 43363)  -->
<!DOCTYPE svg PUBLIC "-//W3C//DTD SVG 1.0//EN" "http://www.w3.org/TR/2001/REC-SVG-20010904/DTD/svg10.dtd">
<svg version="1.0" id="Layer_1" xmlns="http://www.w3.org/2000/svg" xmlns:xlink="http://www.w3.org/1999/xlink" x="0px" y="0px"
	 width="100px" height="99.036px" viewBox="0 0 100 99.036" enable-background="new 0 0 100 99.036" xml:space="preserve">
<path d="M46.58,15.784c-12.306,0-19.315-10.31-19.409-10.452l4.452-2.945c0.403,0.6,10.184,14.738,27.271,3.986l2.844,4.519
	C56.06,14.464,50.979,15.784,46.58,15.784L46.58,15.784z"/>
<path d="M92.127,15.439h5.359c-0.3-5.254-3.158-9.685-8.047-12.476c-7.106-4.057-17.393-3.938-25.592,0.294l2.448,4.745
	c6.66-3.437,14.896-3.599,20.497-0.403C89.047,8.886,91.768,11.288,92.127,15.439z"/>
<path d="M97.422,21.366h-5.306l-1.868,56.273L60.172,57.596v20.048L30.085,57.596v20.048L0,57.596v41.439h100L97.422,21.366z
	 M25.396,93.852H5.184v-9.848h20.212V93.852z M55.481,93.852H35.269v-9.848h20.213V93.852z M85.567,93.852H65.354v-9.848h20.213
	V93.852z"/>
</svg>
