<?xml version="1.0" encoding="utf-8"?>
<!-- Generator: Adobe Illustrator 14.0.0, SVG Export Plug-In . SVG Version: 6.00 Build 43363)  -->
<!DOCTYPE svg PUBLIC "-//W3C//DTD SVG 1.0//EN" "http://www.w3.org/TR/2001/REC-SVG-20010904/DTD/svg10.dtd">
<svg version="1.0" id="Layer_1" xmlns="http://www.w3.org/2000/svg" xmlns:xlink="http://www.w3.org/1999/xlink" x="0px" y="0px"
	 width="100px" height="100px" viewBox="0 0 100 100" enable-background="new 0 0 100 100" xml:space="preserve">
<path d="M50,0C22.43,0,0,22.43,0,50s22.43,50,50,50c27.57,0,50-22.43,50-50S77.57,0,50,0z M92.42,46.296H53.704V7.578
	C74.238,9.356,90.642,25.762,92.42,46.296z M46.296,7.578v38.718H7.579C9.357,25.762,25.761,9.356,46.296,7.578z M7.579,53.704
	h38.717v38.718C25.761,90.644,9.357,74.238,7.579,53.704z M53.704,92.422V53.704H92.42C90.642,74.238,74.238,90.644,53.704,92.422z"
	/>
</svg>
