<?xml version="1.0" encoding="utf-8"?>
<!-- Generator: Adobe Illustrator 14.0.0, SVG Export Plug-In . SVG Version: 6.00 Build 43363)  -->
<!DOCTYPE svg PUBLIC "-//W3C//DTD SVG 1.0//EN" "http://www.w3.org/TR/2001/REC-SVG-20010904/DTD/svg10.dtd">
<svg version="1.0" id="Layer_1" xmlns="http://www.w3.org/2000/svg" xmlns:xlink="http://www.w3.org/1999/xlink" x="0px" y="0px"
	 width="97.016px" height="100px" viewBox="0 0 97.016 100" enable-background="new 0 0 97.016 100" xml:space="preserve">
<path d="M65.979,99.992c17.125,0,31.037-13.882,31.037-31.007c0-4.952,0-18.109,0-20.806c0-2.844-2.179-3.678-4.068-1.596
	c-1.123,1.231-26.411,26.692-39.057,40.485c0-11.102,0-26.342,0-30.11c0-0.748,0.32-1.328,1.217-1.328
	c12.979,0,24.711-13.977,24.711-27.405c0-9.934-2.093-17.139-6.702-26.355C72.517,0.668,72.43,0,70.746,0
	c-0.787,0-1.541,0.354-1.905,0.985c-1.198,2.079-7.672,13.269-8.087,14.007c-0.504,0.902-1.59,0.995-2.096,0
	c-0.382-0.754-6.885-11.928-8.086-14.007C50.206,0.354,49.455,0,48.669,0c-0.786,0-1.538,0.354-1.902,0.985
	c-1.203,2.079-7.705,13.253-8.087,14.007c-0.506,0.995-1.591,0.902-2.096,0c-0.414-0.739-6.887-11.928-8.087-14.007
	C28.132,0.354,27.379,0,26.592,0c-1.684,0-1.771,0.668-2.371,1.869c-4.609,9.217-6.701,16.421-6.701,26.355
	c0,13.428,11.731,27.405,24.71,27.405c0.898,0,1.216,0.58,1.216,1.328c0,6.16,0,43.042,0,43.042L65.979,99.992z"/>
<path d="M0,48.18c0,2.696,0.053,15.854,0.053,20.806c0,17.125,13.884,31.007,31.009,31.007c2.482,0,9.526,0,9.526,0l0.158-16.059
	c0,0-35.156-35.704-36.653-37.35C2.202,44.501,0,45.336,0,48.18z"/>
</svg>
