<?xml version="1.0" encoding="utf-8"?>
<!-- Generator: Adobe Illustrator 14.0.0, SVG Export Plug-In . SVG Version: 6.00 Build 43363)  -->
<!DOCTYPE svg PUBLIC "-//W3C//DTD SVG 1.0//EN" "http://www.w3.org/TR/2001/REC-SVG-20010904/DTD/svg10.dtd">
<svg version="1.0" id="Layer_1" xmlns="http://www.w3.org/2000/svg" xmlns:xlink="http://www.w3.org/1999/xlink" x="0px" y="0px"
	 width="99.546px" height="100px" viewBox="0 0 99.546 100" enable-background="new 0 0 99.546 100" xml:space="preserve">
<path d="M51.381,38.817c3.063-0.98,6.337,0.708,7.318,3.776c0.979,3.056-0.713,6.333-3.776,7.318l-15.825,5.057
	c-1.832,0.586-3.84,0.225-5.358-0.961l-6.546-5.123L41.407,100H0V35.061c0-3.835,3.108-6.945,6.944-6.945h10.354
	c1.478,0,2.838,0.47,3.958,1.344c0,0,13.505,10.563,17.233,13.478L51.381,38.817z M26.09,58.399h-6.282V52.11h-7.496v6.289H6.055
	v7.52h6.258v6.253h7.496v-6.253h6.282V58.399z"/>
<path d="M13.493,24.995c6.899,0,12.496-5.591,12.496-12.5C25.989,5.599,20.393,0,13.493,0c-6.903,0-12.5,5.599-12.5,12.495
	C0.993,19.404,6.59,24.995,13.493,24.995"/>
<path d="M87.033,25.04c6.907,0,12.514-5.603,12.514-12.51c0-6.918-5.606-12.527-12.514-12.527c-6.915,0-12.517,5.609-12.517,12.527
	C74.516,19.438,80.118,25.04,87.033,25.04"/>
<path d="M83.253,28.401c-5.119,0-7.444,1.752-9.391,4.785l-1.261,2.421L65.29,33.47l0.308-1.993L48.13,27.564l-0.486,2.18
	l-3.27-0.727l0.49-2.184l-1.312-0.293l-1.499,6.692l1.302,0.292l0.502-2.186l3.266,0.731l-0.488,2.19l17.468,3.911l0.565-2.049
	l7.076,1.138L53.51,72.322c-1.407,2.819-0.268,6.24,2.555,7.651c2.819,1.415,6.246,0.27,7.665-2.549l15.214-29.52h2.495v52.093
	h17.933V28.401H83.253z"/>
</svg>
