<?xml version="1.0" encoding="utf-8"?>
<!-- Generator: Adobe Illustrator 14.0.0, SVG Export Plug-In . SVG Version: 6.00 Build 43363)  -->
<!DOCTYPE svg PUBLIC "-//W3C//DTD SVG 1.0//EN" "http://www.w3.org/TR/2001/REC-SVG-20010904/DTD/svg10.dtd">
<svg version="1.0" id="Layer_1" xmlns="http://www.w3.org/2000/svg" xmlns:xlink="http://www.w3.org/1999/xlink" x="0px" y="0px"
	 width="100px" height="100px" viewBox="0 0 100 100" enable-background="new 0 0 100 100" xml:space="preserve">
<path d="M100,50C100,77.614,77.614,100,50,100C22.386,100,0,77.614,0,50C0,22.386,22.386,0,50,0C77.614,0,100,22.386,100,50z
	 M24.024,47.545c0.231-7.002,1.444-13.7,3.478-19.893l-16.703-0.019C7.412,33.56,5.328,40.327,4.941,47.545H24.024z M47.559,27.635
	H32.673c-2.218,6.213-3.523,12.898-3.77,19.91h18.655V27.635z M47.559,4.937c-5.256,4.698-9.693,10.769-12.899,17.772h12.899V4.937z
	 M14.032,22.708H29.35c2.577-6.159,6.12-11.869,10.201-16.596C29.015,8.488,20.001,14.842,14.032,22.708z M95.059,47.545
	c-0.387-7.219-2.472-13.985-5.858-19.912l-16.705,0.019c2.035,6.193,3.248,12.891,3.479,19.893H95.059z M52.441,47.545h18.656
	c-0.247-7.012-1.553-13.697-3.771-19.91H52.441V47.545z M52.441,22.708h12.9c-3.207-7.003-7.644-13.074-12.9-17.772V22.708z
	 M60.448,6.113C64.53,10.84,68.074,16.55,70.65,22.708h15.318C80,14.842,70.987,8.488,60.448,6.113z M4.941,52.455
	c0.387,7.217,2.471,13.985,5.858,19.91l16.703-0.018c-2.034-6.192-3.247-12.891-3.478-19.893H4.941z M47.559,52.455H28.903
	c0.247,7.013,1.552,13.697,3.77,19.91h14.886V52.455z M47.559,77.292H34.659c3.207,7.004,7.643,13.074,12.899,17.771V77.292z
	 M39.551,93.887c-4.081-4.729-7.625-10.437-10.201-16.596H14.032C20.001,85.157,29.015,91.511,39.551,93.887z M75.974,52.455
	c-0.23,7.002-1.443,13.7-3.479,19.893l16.705,0.018c3.387-5.925,5.472-12.693,5.858-19.91H75.974z M52.441,72.365h14.886
	c2.218-6.213,3.523-12.897,3.771-19.91H52.441V72.365z M52.441,95.063c5.257-4.697,9.693-10.768,12.9-17.771h-12.9V95.063z
	 M85.968,77.292H70.65c-2.576,6.159-6.12,11.867-10.202,16.596C70.987,91.511,80,85.157,85.968,77.292z"/>
</svg>
