<?xml version="1.0" encoding="utf-8"?>
<!-- Generator: Adobe Illustrator 14.0.0, SVG Export Plug-In . SVG Version: 6.00 Build 43363)  -->
<!DOCTYPE svg PUBLIC "-//W3C//DTD SVG 1.0//EN" "http://www.w3.org/TR/2001/REC-SVG-20010904/DTD/svg10.dtd">
<svg version="1.0" id="Layer_1" xmlns="http://www.w3.org/2000/svg" xmlns:xlink="http://www.w3.org/1999/xlink" x="0px" y="0px"
	 width="32.51px" height="100px" viewBox="0 0 32.51 100" enable-background="new 0 0 32.51 100" xml:space="preserve">
<path d="M1.28,52.456c2.258,2.256,4.096,4.096,5.621,5.619v0.011l5.392,5.396l1.575,1.571v-6.796h-0.002
	c-0.01-2.811-0.281-5.689-1.28-6.684c-2.256-2.259-4.096-4.099-5.619-5.623v-0.01l-5.393-5.393L0,38.974v6.795h0.004
	C0.011,48.58,0.282,51.459,1.28,52.456z"/>
<path d="M1.28,32.969c2.258,2.256,4.096,4.097,5.621,5.621v0.008l5.392,5.396l1.575,1.57V38.77h-0.002
	c-0.01-2.811-0.281-5.688-1.28-6.684c-2.256-2.256-4.096-4.097-5.619-5.621v-0.01L1.574,21.06L0,19.488v6.795h0.004
	C0.011,29.094,0.282,31.973,1.28,32.969z"/>
<path d="M1.28,13.48c2.258,2.257,4.096,4.097,5.621,5.621v0.008l5.392,5.397l1.575,1.57v-6.794h-0.002
	c-0.01-2.812-0.281-5.688-1.28-6.685C10.33,10.341,8.49,8.501,6.967,6.977v-0.01L1.574,1.572L0,0v6.795h0.004
	C0.011,9.606,0.282,12.485,1.28,13.48z"/>
<path d="M25.543,65.431v0.011c-1.523,1.523-5.75,5.75-8.007,8.005c-0.999,0.997-1.27,3.872-1.279,6.685h-0.002h-0.002
	c-0.01-2.812-0.28-5.688-1.279-6.685c-2.257-2.255-6.483-6.481-8.007-8.005v-0.011l-5.393-5.397L0,58.463v6.795h0.004
	c0.007,2.812,0.278,5.689,1.276,6.684c2.258,2.26,4.096,4.099,5.621,5.624v0.007l6.967,6.968V100h4.773V84.54l6.967-6.968v-0.007
	c1.525-1.525,3.363-3.364,5.621-5.624c0.998-0.994,1.27-3.872,1.276-6.684h0.004v-6.795l-1.574,1.57L25.543,65.431z"/>
<path d="M25.543,45.94v0.01c-1.523,1.524-3.363,3.364-5.619,5.623c-0.999,0.994-1.271,3.873-1.28,6.684h-0.002v6.796l1.575-1.571
	l5.392-5.396v-0.011c1.525-1.523,3.363-3.363,5.621-5.619c0.998-0.997,1.27-3.876,1.276-6.688h0.004v-6.795l-1.574,1.574
	L25.543,45.94z"/>
<path d="M25.543,26.455v0.01c-1.523,1.523-3.363,3.364-5.619,5.621c-0.999,0.997-1.271,3.873-1.28,6.684h-0.002v6.795l1.575-1.57
	l5.392-5.396v-0.008c1.525-1.523,3.363-3.364,5.621-5.621c0.998-0.996,1.27-3.875,1.276-6.686h0.004v-6.795l-1.574,1.572
	L25.543,26.455z"/>
<path d="M30.936,1.572l-5.393,5.395v0.01c-1.523,1.524-3.363,3.364-5.619,5.621c-0.999,0.996-1.271,3.873-1.28,6.685h-0.002v6.794
	l1.575-1.57l5.392-5.397v-0.008c1.525-1.524,3.363-3.364,5.621-5.621c0.998-0.996,1.27-3.875,1.276-6.685h0.004V0L30.936,1.572z"/>
</svg>
